<svg width="28" height="17" viewBox="0 0 28 17" fill="none" xmlns="http://www.w3.org/2000/svg">
<g clip-path="url(#clip0_40_440)">
<g clip-path="url(#clip1_40_440)">
<g clip-path="url(#clip2_40_440)">
<path d="M26.7262 9.18133C27.1025 8.80495 27.1025 8.19475 26.7262 7.81837L20.5928 1.68511C20.2165 1.30874 19.6064 1.30874 19.2299 1.68511C18.8536 2.06148 18.8536 2.67169 19.2299 3.04806L24.6818 8.49985L19.2299 13.9517C18.8536 14.328 18.8536 14.9382 19.2299 15.3146C19.6064 15.691 20.2165 15.691 20.5928 15.3146L26.7262 9.18133ZM0.0234375 9.4636H26.0447V7.5361H0.0234375V9.4636Z" fill="#D0721B"/>
</g>
</g>
</g>
<defs>
<clipPath id="clip0_40_440">
<rect width="27" height="15.42" fill="white" transform="translate(0.0159302 0.790039)"/>
</clipPath>
<clipPath id="clip1_40_440">
<rect width="27" height="15.42" fill="white" transform="translate(0.0159302 0.790039)"/>
</clipPath>
<clipPath id="clip2_40_440">
<rect width="26.985" height="15.42" fill="white" transform="translate(0.0234375 0.790039)"/>
</clipPath>
</defs>
</svg>
