<svg width="206" height="53" viewBox="0 0 206 53" fill="none" xmlns="http://www.w3.org/2000/svg">
<g clip-path="url(#clip0_5_79)">
<path d="M26.2808 52.3303C26.1479 52.1605 26.0371 51.9759 25.882 51.8356C22.7363 48.9926 19.5832 46.1644 16.4375 43.3214C13.0407 40.257 9.67348 37.1556 6.25454 34.1206C4.34201 32.4148 2.46639 30.6647 0.561243 28.959C-0.169803 28.3018 -0.177187 28.1541 0.531706 27.4378C1.45474 26.5074 2.43686 25.6287 3.46328 24.8164C5.05829 23.5389 6.60161 22.1949 8.12277 20.8362C8.36646 20.6221 8.56583 20.3341 8.92766 20.3193C8.99412 20.3784 9.07535 20.4227 9.07535 20.4596C9.07535 21.5156 9.20088 22.5715 9.02366 23.6201C8.90551 24.3069 8.5806 24.8681 8.08585 25.348C7.52464 25.9019 6.94128 26.4483 6.51299 27.1277C6.15116 27.711 6.14378 27.7184 6.67545 28.1689C10.7368 31.6321 14.8056 35.0953 18.8669 38.5586C21.1635 40.5228 23.4526 42.4944 25.7565 44.4512C26.6869 45.2414 26.6721 45.1971 27.61 44.3774C29.6259 42.6052 31.6639 40.8551 33.7094 39.1124C37.4459 35.9224 41.1897 32.7471 44.9409 29.5645C45.4947 29.0919 46.0781 28.6488 46.6762 28.1689C46.307 27.231 45.7384 26.4409 44.9409 25.8576C44.0696 25.2151 43.693 24.4176 43.7447 23.3543C43.7816 22.5715 43.7447 21.7814 43.7299 20.9913C43.7299 20.8362 43.7151 20.6886 43.944 20.5039C47.075 23.0663 50.2724 25.577 53.3664 28.2353C53.2335 28.6858 52.8938 28.9147 52.6058 29.1731C49.8589 31.6395 47.1045 34.0911 44.3502 36.5574C41.3005 39.2822 38.2655 42.0144 35.2084 44.7318C32.587 47.0653 30.0246 49.4578 27.3367 51.7174C27.13 51.8946 26.8863 52.0423 26.842 52.3451H26.2882L26.2808 52.3303Z" fill="#386F6D"/>
<path d="M206 16.8339C205.424 16.9447 204.841 16.8782 204.257 16.8856C203.445 16.9004 203.423 16.9152 203.43 17.6979C203.43 19.6695 203.445 21.6337 203.445 23.6054C203.445 24.5875 203.379 24.6539 202.419 24.6539C202.02 24.6539 201.621 24.6539 201.222 24.6465C200.654 24.6244 200.528 24.5062 200.491 23.945C200.469 23.5537 200.484 23.1549 200.484 22.7635C200.484 21.0947 200.484 19.4332 200.484 17.7644C200.484 17.0407 200.477 17.0407 199.716 17.0112C199.376 16.9964 199.044 17.0112 198.704 16.989C198.003 16.9595 197.899 16.8709 197.885 16.2063C197.877 15.6303 197.892 15.0543 197.87 14.4783C197.855 14.1017 197.981 13.9024 198.379 13.9171C200.912 14.0131 203.46 13.7621 205.993 14.1017V16.8339H206Z" fill="#386F6D"/>
<path d="M25.786 0.669693C25.978 0.817379 25.9928 0.97245 25.9928 1.12014C26.0666 7.36726 26.1478 13.607 26.1257 19.8541C26.1183 22.3131 26.0888 24.7647 26.1478 27.2237C26.2586 31.6173 26.2881 36.011 26.2512 40.4046C26.2512 40.796 26.2881 41.1948 26.2807 41.5861C26.2807 41.948 26.074 42.0809 25.7417 41.9406C25.5202 41.8446 25.3134 41.7043 25.114 41.564C23.0464 40.0797 21.1265 38.433 19.4355 36.5427C18.35 35.3316 17.486 33.9803 17.0356 32.4001C16.8953 31.8979 16.851 31.3884 16.851 30.8715C16.851 24.8385 16.851 18.7982 16.851 12.7652C16.851 11.3326 16.9913 9.92961 17.4934 8.56352C18.1137 6.87989 19.2952 5.61718 20.6465 4.50215C22.1012 3.29851 23.6076 2.14655 25.0919 0.979834C25.2839 0.832148 25.4832 0.684462 25.7712 0.677077L25.786 0.669693Z" fill="#386F6D"/>
<path d="M26.5097 0.684463C27.0044 0.654925 27.3736 0.891223 27.7059 1.14229C29.5077 2.501 31.3759 3.77849 33.0079 5.34396C34.6767 6.94635 35.6662 8.84412 35.9025 11.1628C36.0059 12.1892 36.0576 13.2156 36.0576 14.242C36.0576 19.4258 36.028 24.617 36.0723 29.8008C36.0871 31.9865 35.4151 33.8769 34.086 35.6122C32.3063 37.9309 30.1354 39.8287 27.8315 41.6009C27.7798 41.6378 27.7355 41.6748 27.6838 41.7043C27.4179 41.8372 27.189 42.1547 26.8641 41.9775C26.5392 41.8003 26.805 41.4828 26.805 41.2317C26.805 40.8994 26.8198 40.5671 26.8198 40.2348C26.805 34.3791 26.7829 28.5307 26.7607 22.6749C26.7607 20.2824 26.7238 17.8825 26.7607 15.49C26.805 12.6692 26.7533 9.85577 26.5023 7.04235C26.3324 5.04859 26.4727 3.04006 26.4137 1.03891C26.4137 0.928145 26.4727 0.809996 26.5023 0.691847L26.5097 0.684463Z" fill="#386F6D"/>
<path d="M36.7812 33.0794V10.7419C37.1357 10.5277 37.3424 10.7419 37.5344 10.9191C38.679 11.9234 39.8162 12.9424 40.9977 13.9098C41.8025 14.567 42.0093 15.2611 42.0019 16.2358C41.9872 17.8677 42.157 19.5071 42.2161 21.139C42.2973 23.5906 42.3416 26.0496 42.1791 28.5011C42.1496 28.959 42.0167 29.306 41.6401 29.594C40.3478 30.5687 39.0704 31.5656 37.7855 32.5404C37.527 32.7397 37.2686 32.9613 36.7886 33.0646L36.7812 33.0794Z" fill="#386F6D"/>
<path d="M68.4009 17.565C68.4009 19.5661 68.4009 21.5673 68.4009 23.5684C68.4009 23.7826 68.4009 23.9967 68.3861 24.2035C68.3639 24.4841 68.2015 24.6539 67.9135 24.6539C67.212 24.6539 66.5031 24.6539 65.8016 24.6539C65.5358 24.6539 65.4176 24.5136 65.3881 24.2699C65.3659 23.9967 65.329 23.7235 65.329 23.4577C65.3438 20.3046 65.2478 17.1515 65.3807 14.0058C65.4028 13.5775 65.2478 13.3929 64.8047 13.4002C63.9481 13.415 63.0915 13.4002 62.235 13.4002C61.5925 13.4076 61.5778 13.4298 61.5704 14.0796C61.5704 16.5681 61.5704 19.0492 61.5704 21.5377C61.5704 22.3279 61.5704 23.1106 61.563 23.9007C61.5482 24.5136 61.4227 24.6392 60.795 24.6539C60.2412 24.6687 59.6948 24.6318 59.1409 24.6392C58.7126 24.6465 58.528 24.425 58.4911 24.041C58.4764 23.8933 58.4911 23.7383 58.4911 23.5832C58.4911 19.5809 58.4911 15.5786 58.4911 11.5763C58.4911 11.4212 58.4911 11.2736 58.4985 11.1185C58.5502 10.5204 58.6167 10.4391 59.2222 10.4317C60.352 10.417 61.4892 10.4317 62.619 10.4317C64.1844 10.4317 65.7425 10.4317 67.308 10.4317C68.4009 10.4317 68.4156 10.4317 68.4156 11.5615C68.4304 13.5627 68.4156 15.5638 68.4156 17.565H68.4009Z" fill="#386F6D"/>
<path d="M15.9205 10.6459C15.7138 18.1705 16.3267 25.5843 16.1568 33.0056C15.6178 33.0942 15.352 32.8136 15.0787 32.5921C13.8456 31.5952 12.6198 30.5909 11.3127 29.69C10.8401 29.3651 10.6186 28.9516 10.626 28.3904C10.6555 25.0601 10.5522 21.7297 10.7368 18.3994C10.7885 17.4321 10.7737 16.4573 10.7442 15.49C10.7294 14.9509 10.9361 14.6113 11.3644 14.2716C12.4868 13.3781 13.5576 12.4255 14.6431 11.4951C15.0049 11.185 15.3667 10.8674 15.9132 10.6459H15.9205Z" fill="#386F6D"/>
<path d="M149.311 17.5871C149.311 15.4974 149.311 13.4076 149.311 11.3179C149.311 10.4391 149.318 10.4317 150.153 10.4317C152.877 10.4317 155.602 10.4317 158.327 10.4465C159.161 10.4465 159.228 10.4982 159.228 11.3252C159.243 15.3571 159.243 19.3889 159.243 23.4134C159.243 23.6497 159.198 23.8933 159.161 24.1296C159.11 24.4841 158.896 24.6613 158.534 24.6613C157.98 24.6613 157.433 24.6761 156.88 24.6613C156.185 24.6465 156.149 24.6096 156.149 23.9376C156.149 22.5125 156.149 21.0873 156.149 19.6621C156.149 17.8456 156.149 16.0291 156.149 14.2051C156.149 13.415 156.134 13.4076 155.314 13.4002C154.546 13.3929 153.786 13.415 153.018 13.4002C152.582 13.3855 152.419 13.5627 152.427 13.991C152.471 16.5976 152.287 19.1969 152.397 21.8036C152.427 22.5568 152.397 23.3174 152.397 24.0779C152.397 24.521 152.198 24.7278 151.711 24.6835C151.194 24.6392 150.669 24.6539 150.153 24.6539C149.333 24.6539 149.325 24.6539 149.325 23.8564C149.325 21.7667 149.325 19.6769 149.325 17.5871C149.325 17.5871 149.325 17.5871 149.318 17.5871H149.311Z" fill="#386F6D"/>
<path d="M94.2754 20.1273C94.6373 19.4701 94.6816 18.8868 94.8366 18.3403C95.1763 17.1441 95.4938 15.9478 95.8188 14.7442C95.9443 14.279 96.188 14.0205 96.7196 14.0353C97.5171 14.0574 98.3147 14.0353 99.1122 14.0058C99.4888 13.991 99.5995 14.183 99.6438 14.4783C99.6734 14.6556 99.666 14.8402 99.666 15.0248C99.666 17.757 99.666 20.4818 99.6586 23.214C99.6586 23.3691 99.6586 23.5167 99.6438 23.6718C99.5848 24.5505 99.4592 24.6613 98.5953 24.6539C98.226 24.6539 97.8568 24.6539 97.495 24.6392C96.631 24.617 96.4833 24.4915 96.5867 23.6866C96.7196 22.7192 96.6236 21.7445 96.6975 20.7772C96.7049 20.6664 96.6753 20.5482 96.6458 20.2455C96.247 20.9765 96.0994 21.6116 95.8852 22.2171C95.7671 22.5568 95.7154 22.9186 95.6341 23.2731C95.3683 24.4176 94.7997 24.7573 93.633 24.5062C93.2195 24.4176 93.1309 24.1075 93.0423 23.7826C92.8281 22.9334 92.5401 22.099 92.4294 21.2202C92.4072 21.0725 92.3703 20.9248 92.23 20.8141C91.9715 21.1095 91.9863 21.4639 91.9789 21.8183C91.9715 22.5789 91.9641 23.3321 91.9789 24.0927C91.9789 24.5062 91.846 24.713 91.3956 24.6908C90.7827 24.6613 90.1698 24.6465 89.5569 24.6465C89.1212 24.6465 88.9514 24.4324 88.9661 24.0263C88.9661 23.8786 88.9661 23.7235 88.9661 23.5684C88.9661 20.6885 88.9661 17.8087 88.9661 14.9214C88.9661 13.9393 88.9661 13.9393 89.9999 13.9467C90.5537 13.9467 91.1002 13.9541 91.654 13.9688C92.4515 13.9836 92.5254 14.0353 92.7321 14.7811C93.1383 16.2358 93.5296 17.6979 93.9358 19.16C94.017 19.448 94.1278 19.7286 94.2681 20.1273H94.2754Z" fill="#386F6D"/>
<path d="M72.8831 24.2626C72.8167 24.9271 72.8979 25.5917 72.92 26.2489C72.9422 26.8544 72.957 27.46 72.9717 28.0655C72.9791 28.4716 72.8019 28.6858 72.3662 28.6636C71.9084 28.6414 71.4506 28.6562 70.9927 28.6488C70.3774 28.639 70.0697 28.3338 70.0697 27.7332C70.0697 23.945 70.0697 20.1569 70.0697 16.3761C70.0697 15.8297 70.0697 15.2832 70.0845 14.7442C70.1066 14.1239 70.2248 13.9762 70.8451 14.0205C71.5096 14.0648 72.1964 13.9688 72.8462 14.2051C73.0825 14.2937 73.3262 14.3159 73.5403 14.1461C74.0572 13.7251 74.6258 13.6365 75.2609 13.8211C76.0805 14.0648 76.7747 14.471 77.2103 15.2242C77.5648 15.8371 77.8085 16.4869 77.8897 17.1884C78.0595 18.6948 78.1407 20.2086 77.8158 21.7002C77.6608 22.4165 77.3654 23.0811 76.8928 23.657C76.0067 24.7278 74.9138 25.0158 73.6142 24.521C73.3926 24.4324 73.1933 24.2626 72.8905 24.2699L72.8831 24.2626ZM72.9422 19.2855C72.9717 19.8024 72.957 20.4079 73.053 20.9987C73.1563 21.678 73.5625 21.8848 74.2492 21.7519C74.6332 21.678 74.8252 21.4344 74.9581 21.1168C75.4898 19.8467 75.3199 18.5766 74.9286 17.3213C74.7957 16.9004 74.2788 16.6567 73.8062 16.701C73.3705 16.7379 73.112 16.989 73.0382 17.565C72.9717 18.104 72.9717 18.6431 72.9422 19.2781V19.2855Z" fill="#386F6D"/>
<path d="M101.357 17.2475C101.335 15.4309 101.667 13.7178 102.605 12.108C104.067 9.6047 108.114 9.47179 109.812 11.8052C110.536 12.8021 110.838 13.9245 111.06 15.0839C111.149 15.5269 110.993 15.7041 110.521 15.7189C109.908 15.7411 109.295 15.7041 108.682 15.7263C108.21 15.7484 108.018 15.4974 107.951 15.0912C107.914 14.8845 107.907 14.663 107.848 14.4636C107.626 13.6956 107.183 13.3264 106.4 13.2969C105.714 13.2673 105.123 13.4889 104.835 14.1756C104.702 14.4783 104.54 14.7959 104.51 15.1134C104.34 16.7453 104.207 18.3773 104.503 20.0092C104.591 20.5113 104.732 21.0282 105.145 21.3901C105.898 22.0399 107.309 21.7076 107.73 20.7845C107.752 20.7329 107.767 20.6664 107.789 20.6147C108.084 19.7975 108.687 19.4037 109.598 19.4332C111.082 19.4775 111.097 19.5071 110.787 20.9618C110.432 22.6159 109.583 23.9081 107.929 24.4767C105.212 25.4145 103.004 24.2256 102.022 21.8183C101.497 20.5261 101.438 19.1674 101.35 17.8013C101.335 17.6167 101.35 17.4395 101.35 17.2548L101.357 17.2475Z" fill="#386F6D"/>
<path d="M124.056 24.4102C123.953 24.9936 124.042 25.5917 124.064 26.1825C124.086 26.7584 124.123 27.3344 124.101 27.903C124.071 28.5381 123.946 28.6341 123.333 28.6414C122.875 28.6414 122.417 28.6562 121.959 28.6488C121.391 28.6341 121.287 28.5455 121.28 28.0359C121.265 24.0115 121.25 19.9797 121.243 15.9552C121.243 15.5048 121.317 15.0469 121.317 14.5965C121.317 14.1534 121.538 14.0131 121.944 14.0353C122.373 14.0574 122.808 14.0205 123.229 14.1017C123.857 14.2199 124.44 14.1534 125.016 13.9098C125.939 13.5184 126.744 13.7768 127.49 14.3602C128.295 14.9952 128.775 15.8371 128.945 16.8118C129.233 18.429 129.233 20.0609 128.945 21.6854C128.864 22.1654 128.672 22.6159 128.435 23.0368C127.623 24.4841 126.434 24.9641 124.81 24.5284C124.581 24.4693 124.359 24.329 124.056 24.3955V24.4102ZM124.005 19.0862C124.027 19.6621 124.005 20.2381 124.101 20.8067C124.226 21.4787 124.529 21.8257 125.046 21.8627C125.563 21.8996 125.902 21.6264 126.124 20.947C126.552 19.6178 126.39 18.3182 125.932 17.0333C125.836 16.7527 125.644 16.6863 125.371 16.6789C124.485 16.6641 124.064 17.0185 124.005 17.9047C123.982 18.296 124.005 18.6948 124.005 19.0862Z" fill="#386F6D"/>
<path d="M163.821 24.2773C163.673 24.7056 163.777 25.1561 163.791 25.5991C163.813 26.3597 163.858 27.1129 163.836 27.8735C163.813 28.5454 163.666 28.6414 162.994 28.6341C162.565 28.6341 162.137 28.6341 161.709 28.6341C161.31 28.6341 161.066 28.479 161.089 28.0433C161.096 27.8956 161.089 27.7406 161.089 27.5855C161.089 23.406 161.089 19.2191 161.089 15.0396C161.089 14.0205 161.103 14.0058 162.1 14.0353C162.558 14.0501 163.016 14.0944 163.474 14.1091C163.932 14.1239 164.389 14.1239 164.818 13.9171C165.586 13.5405 166.317 13.7104 166.996 14.1313C168.178 14.8623 168.739 15.9995 168.835 17.3213C168.931 18.5545 169.056 19.795 168.894 21.043C168.79 21.8405 168.576 22.5863 168.163 23.2657C167.321 24.6539 165.97 25.0748 164.456 24.4324C164.264 24.3512 164.094 24.2035 163.821 24.2773ZM166.184 19.3003C166.073 18.584 166.058 17.8604 165.733 17.181C165.519 16.7379 165.209 16.6272 164.781 16.6863C164.264 16.7527 163.968 17.0629 163.872 17.565C163.658 18.6726 163.673 19.7877 163.85 20.8953C163.865 20.9839 163.895 21.0725 163.924 21.1611C164.087 21.6411 164.478 21.7519 164.936 21.774C165.408 21.8036 165.66 21.5747 165.822 21.1611C166.051 20.5556 166.058 19.9206 166.184 19.3077V19.3003Z" fill="#386F6D"/>
<path d="M142.96 18.7391C143.233 18.6136 143.241 18.3403 143.322 18.1188C143.743 16.9816 144.164 15.8518 144.563 14.7073C144.725 14.2494 144.998 13.9836 145.493 13.9762C146.106 13.9614 146.719 13.9541 147.332 13.9614C147.664 13.9614 147.834 14.1534 147.849 14.4783C147.863 14.7811 147.886 15.0839 147.886 15.3866C147.886 18.1779 147.886 20.9618 147.886 23.753C147.886 24.6096 147.812 24.6687 146.926 24.6687C146.291 24.6687 145.655 24.6687 144.947 24.6687V19.2708C144.614 19.6917 144.533 20.0387 144.415 20.371C143.957 21.619 143.492 22.8669 143.034 24.1149C142.916 24.4324 142.717 24.617 142.355 24.6244C141.771 24.6244 141.188 24.6318 140.612 24.6465C140.191 24.6613 139.992 24.4693 139.992 24.0484C139.992 23.657 139.992 23.2583 139.992 22.8669C139.992 20.2307 139.992 17.5945 139.992 14.9583C139.992 14.0574 140.066 13.9836 140.981 13.9541C141.35 13.9467 141.72 13.9541 142.081 13.9688C142.761 14.0058 142.857 14.0944 142.886 14.7885C142.901 15.1503 142.857 15.5121 142.842 15.874C142.82 16.5681 142.79 17.2696 142.79 17.9637C142.79 18.2296 142.761 18.5102 142.975 18.7317L142.96 18.7391Z" fill="#386F6D"/>
<path d="M192.118 21.0504C191.977 21.8331 192.073 22.6159 192.051 23.3912C192.044 23.6644 192.044 23.9376 192.051 24.2109C192.051 24.5653 191.874 24.6908 191.534 24.6835C190.862 24.6687 190.183 24.6613 189.511 24.6539C189.201 24.6539 189.068 24.4989 189.06 24.2035C189.06 23.9893 189.046 23.7826 189.046 23.5684C189.046 20.6886 189.046 17.8087 189.046 14.9288C189.046 14.7737 189.046 14.626 189.046 14.471C189.038 14.1313 189.208 13.9467 189.54 13.9541C190.242 13.9762 190.951 14.0058 191.652 14.0501C192.022 14.0796 192.051 14.375 192.051 14.6556C192.051 15.3866 192.051 16.1103 192.051 16.8413C192.051 17.1589 192.051 17.4838 192.051 17.9564C192.472 17.6462 192.605 17.3508 192.745 17.0555C193.077 16.3318 193.269 15.5712 193.498 14.818C193.705 14.1313 193.823 14.0427 194.532 14.0279C195.448 14.0058 196.356 14.0279 197.242 14.0279C197.479 14.2864 197.272 14.4636 197.183 14.6334C196.6 15.7706 196.031 16.9078 195.411 18.0228C195.116 18.5545 195.086 19.0345 195.359 19.5735C195.994 20.8141 196.607 22.0694 197.235 23.3174C197.346 23.5315 197.471 23.7457 197.567 23.9672C197.796 24.4915 197.715 24.6392 197.161 24.6539C196.208 24.6835 195.263 24.6096 194.318 24.521C193.919 24.4841 193.749 24.2183 193.624 23.8933C193.336 23.1254 193.055 22.3574 192.76 21.5968C192.612 21.2276 192.605 21.2276 192.118 21.0504Z" fill="#386F6D"/>
<path d="M182.629 20.7845C183.611 22.0842 184.453 22.2023 185.582 21.2498C186.003 20.8953 186.129 20.8953 186.498 21.2645C187.591 22.3426 187.517 23.2066 186.247 24.0853C184.379 25.3776 181.019 24.8311 180.022 21.9365C179.564 20.6147 179.594 19.256 179.741 17.8973C179.793 17.3878 179.911 16.8782 180.066 16.3909C180.583 14.7959 182.178 13.6661 183.818 13.703C185.368 13.7399 186.72 14.8033 187.214 16.4278C187.539 17.5059 187.687 18.6136 187.643 19.7434C187.613 20.4449 187.495 20.6073 186.786 20.6147C185.959 20.6221 185.139 20.5704 184.312 20.5335C183.766 20.5039 183.219 20.5261 182.636 20.7772L182.629 20.7845ZM184.741 18.0524C184.792 17.8899 184.814 17.8604 184.807 17.8382C184.696 17.3065 184.401 16.8561 183.884 16.701C183.323 16.5312 183.042 17.0776 182.71 17.3952C182.355 17.7348 182.459 18.008 182.939 18.045C183.537 18.0893 184.142 18.0524 184.741 18.0524Z" fill="#386F6D"/>
<path d="M130.377 19.3151C130.326 17.9564 130.606 16.6641 131.3 15.4826C132.519 13.415 135.605 13.1049 137.2 14.9066C137.968 15.7706 138.404 16.7823 138.522 17.9342C138.662 19.3594 138.692 20.7772 138.153 22.1359C137.599 23.5389 136.595 24.4324 135.088 24.7056C133.973 24.9124 132.969 24.6318 132.105 23.9007C130.968 22.9334 130.481 21.6633 130.385 20.216C130.363 19.9132 130.385 19.6104 130.385 19.3077L130.377 19.3151ZM135.738 19.0418C135.687 18.6136 135.797 18.0302 135.458 17.5059C135.192 17.0924 134.933 16.6198 134.372 16.6715C133.833 16.7232 133.553 17.1958 133.405 17.6536C133.028 18.8056 133.124 19.9723 133.493 21.1168C133.626 21.5377 133.892 21.87 134.417 21.8405C135 21.811 135.317 21.5894 135.502 21.043C135.709 20.4375 135.753 19.8024 135.738 19.0345V19.0418Z" fill="#386F6D"/>
<path d="M170.245 19.2929C170.245 18.0597 170.282 16.9521 170.814 15.9109C171.693 14.1756 173.731 13.2969 175.532 13.9467C176.684 14.3676 177.482 15.2242 177.903 16.3392C178.656 18.333 178.693 20.3563 177.947 22.3722C177.356 23.9598 176.116 24.6908 174.499 24.7795C173.096 24.8533 171.951 24.2921 171.146 23.0958C170.349 21.8996 170.179 20.5704 170.245 19.2929ZM175.614 19.4111C175.547 18.6209 175.503 17.9342 175.156 17.2992C174.956 16.9299 174.705 16.6641 174.24 16.6567C173.76 16.6567 173.516 16.9669 173.354 17.3361C172.763 18.6579 172.756 19.9797 173.42 21.2719C173.753 21.9143 174.011 21.9734 174.676 21.7297C175.111 21.5673 175.296 21.235 175.385 20.851C175.503 20.3489 175.547 19.8394 175.614 19.4184V19.4111Z" fill="#386F6D"/>
<path d="M79.2336 19.5809C79.2705 18.104 79.4699 16.9299 79.972 15.8001C80.9246 13.6587 84.2918 12.7357 86.3077 15.1725C86.581 15.5048 86.8099 15.8592 86.9649 16.258C87.696 18.2296 87.7698 20.2233 86.9945 22.1949C86.2561 24.0706 84.4691 25.0453 82.5196 24.6835C81.1387 24.425 79.7209 22.9481 79.4551 21.3974C79.337 20.7181 79.204 20.024 79.2483 19.5735L79.2336 19.5809ZM84.5577 19.2338C84.5577 18.6062 84.6241 17.9637 84.2844 17.3804C83.7749 16.5016 82.97 16.4721 82.4384 17.3361C82.2833 17.5871 82.1356 17.8825 82.0913 18.1705C81.9436 19.1674 81.951 20.1495 82.3498 21.1021C82.5344 21.5451 82.815 21.8036 83.2802 21.8331C83.7454 21.8627 84.0925 21.6042 84.3214 21.1021C84.5872 20.5039 84.5724 19.8689 84.5577 19.2338Z" fill="#386F6D"/>
<path d="M117.359 20.7107C117.359 21.7371 117.366 22.7709 117.359 23.7973C117.351 24.521 117.226 24.6392 116.502 24.6539C116.074 24.6613 115.646 24.6539 115.217 24.6392C114.545 24.617 114.435 24.5136 114.412 23.8343C114.398 23.3174 114.412 22.8078 114.412 22.2909C114.412 20.7476 114.412 19.2043 114.412 17.661C114.412 17.0555 114.398 17.0481 113.814 17.0185C113.386 16.9964 112.958 17.0185 112.529 16.989C111.939 16.9595 111.828 16.8487 111.813 16.2875C111.798 15.682 111.828 15.0765 111.813 14.471C111.806 14.1239 111.99 13.9762 112.301 13.9319C112.448 13.9098 112.603 13.9098 112.758 13.9098C114.9 13.9614 117.041 13.8581 119.183 14.0205C119.914 14.0796 119.943 14.0796 119.958 14.818C119.973 15.3645 119.958 15.9109 119.958 16.45C119.958 16.7896 119.796 16.9447 119.449 16.9299C119.02 16.9078 118.592 16.9004 118.171 16.8856C117.433 16.8561 117.374 16.9078 117.366 17.6167C117.359 18.6431 117.366 19.6769 117.366 20.7033H117.381L117.359 20.7107Z" fill="#386F6D"/>
<path d="M143.78 13.031C142.347 13.031 141.025 11.8126 140.885 10.3801C140.848 10.0182 140.989 9.75239 141.358 9.73024C142.022 9.69332 142.672 9.63424 143.145 10.3284C143.647 11.0668 144.142 11.0151 144.71 10.2619C145.102 9.73762 145.914 9.51609 146.49 9.75978C146.756 9.87054 146.83 10.0773 146.83 10.3431C146.83 11.2957 146.46 12.0563 145.611 12.5363C145.05 12.8538 144.437 13.0532 143.78 13.0236V13.031Z" fill="#386F6D"/>
<path d="M66.0046 34.1132V40.5449H64.273V34.979H60.9335V40.5449H59.2018V34.1132H66.0046Z" fill="#0D0D0D"/>
<path d="M69.4732 34.979V39.6791H71.0193C71.2996 39.6791 71.5553 39.6379 71.7861 39.5555C72.0253 39.4647 72.2273 39.3246 72.3922 39.1349C72.5654 38.9453 72.6973 38.702 72.788 38.4052C72.887 38.1083 72.9364 37.7496 72.9364 37.3291C72.9364 36.9085 72.887 36.5499 72.788 36.253C72.6973 35.9562 72.5654 35.7129 72.3922 35.5233C72.2273 35.3336 72.0253 35.1975 71.7861 35.1151C71.5553 35.0244 71.2996 34.979 71.0193 34.979H69.4732ZM71.0193 34.1132C71.5882 34.1132 72.1036 34.1874 72.5654 34.3359C73.0354 34.4843 73.4353 34.6987 73.7651 34.979C74.095 35.2594 74.3465 35.5975 74.5196 35.9933C74.701 36.3891 74.7917 36.8343 74.7917 37.3291C74.7917 37.8238 74.701 38.2691 74.5196 38.6649C74.3465 39.0607 74.095 39.3988 73.7651 39.6791C73.4353 39.9595 73.0354 40.1739 72.5654 40.3223C72.1036 40.4707 71.5882 40.5449 71.0193 40.5449H69.4732V42.7713H67.7416V34.1132H71.0193Z" fill="#0D0D0D"/>
<path d="M79.6721 39.9884C79.9359 39.9884 80.1833 39.9389 80.4142 39.8399C80.6451 39.741 80.8471 39.5884 81.0203 39.3823C81.1934 39.1679 81.3295 38.8917 81.4284 38.5536C81.5356 38.2155 81.5892 37.8073 81.5892 37.3291C81.5892 36.8508 81.5356 36.4427 81.4284 36.1046C81.3295 35.7665 81.1934 35.4944 81.0203 35.2882C80.8471 35.0739 80.6451 34.9172 80.4142 34.8182C80.1833 34.7193 79.9359 34.6698 79.6721 34.6698C79.4082 34.6698 79.1608 34.7193 78.9299 34.8182C78.6991 34.9172 78.497 35.0739 78.3239 35.2882C78.1507 35.4944 78.0105 35.7665 77.9033 36.1046C77.8044 36.4427 77.7549 36.8508 77.7549 37.3291C77.7549 37.8073 77.8044 38.2155 77.9033 38.5536C78.0105 38.8917 78.1507 39.1679 78.3239 39.3823C78.497 39.5884 78.6991 39.741 78.9299 39.8399C79.1608 39.9389 79.4082 39.9884 79.6721 39.9884ZM79.6721 33.8658C80.2245 33.8658 80.7316 33.9442 81.1934 34.1008C81.6634 34.2493 82.0633 34.4719 82.3932 34.7688C82.723 35.0574 82.9786 35.4202 83.16 35.8572C83.3497 36.286 83.4445 36.7766 83.4445 37.3291C83.4445 37.8898 83.3497 38.3845 83.16 38.8133C82.9786 39.2421 82.723 39.6049 82.3932 39.9018C82.0633 40.1904 81.6634 40.4089 81.1934 40.5573C80.7316 40.714 80.2245 40.7923 79.6721 40.7923C79.1113 40.7923 78.6001 40.714 78.1383 40.5573C77.6766 40.4089 77.2808 40.1904 76.9509 39.9018C76.6211 39.6049 76.3614 39.2421 76.1717 38.8133C75.9903 38.3845 75.8996 37.8898 75.8996 37.3291C75.8996 36.7766 75.9903 36.286 76.1717 35.8572C76.3614 35.4202 76.6211 35.0574 76.9509 34.7688C77.2808 34.4719 77.6766 34.2493 78.1383 34.1008C78.6001 33.9442 79.1113 33.8658 79.6721 33.8658Z" fill="#0D0D0D"/>
<path d="M88.58 39.9265C88.984 39.9265 89.3592 39.8564 89.7055 39.7162C90.0601 39.5761 90.4064 39.3782 90.7445 39.1225L91.2392 39.8647C91.0826 40.0048 90.897 40.1327 90.6826 40.2481C90.4765 40.3635 90.2497 40.4625 90.0024 40.5449C89.7632 40.6192 89.5117 40.6769 89.2479 40.7181C88.984 40.7676 88.7201 40.7923 88.4563 40.7923C87.8708 40.7923 87.3348 40.714 86.8483 40.5573C86.3701 40.4089 85.9619 40.1904 85.6238 39.9018C85.2858 39.6049 85.0219 39.2421 84.8322 38.8133C84.6508 38.3845 84.5601 37.8898 84.5601 37.3291C84.5601 36.7766 84.6467 36.286 84.8199 35.8572C85.0013 35.4202 85.2486 35.0574 85.562 34.7688C85.8836 34.4719 86.2629 34.2493 86.6999 34.1008C87.1369 33.9442 87.6193 33.8658 88.147 33.8658C88.6418 33.8658 89.1077 33.9401 89.5447 34.0885C89.9817 34.2369 90.361 34.4554 90.6826 34.744C91.0042 35.0244 91.2598 35.3666 91.4495 35.7706C91.6391 36.1747 91.734 36.6323 91.734 37.1436V38.0094H86.4525C86.5515 38.6938 86.7865 39.1844 87.1576 39.4812C87.5369 39.7781 88.011 39.9265 88.58 39.9265ZM88.147 34.6698C87.9079 34.6698 87.6853 34.7152 87.4791 34.8059C87.273 34.8966 87.0916 35.0409 86.9349 35.2388C86.7865 35.4367 86.6628 35.6923 86.5639 36.0056C86.4731 36.319 86.4237 36.6983 86.4154 37.1436H89.8787C89.8787 36.7148 89.8292 36.3437 89.7302 36.0304C89.6313 35.717 89.4994 35.4614 89.3344 35.2635C89.1778 35.0574 88.9922 34.9089 88.7779 34.8182C88.5717 34.7193 88.3614 34.6698 88.147 34.6698Z" fill="#0D0D0D"/>
<path d="M96.1857 37.762H94.887V40.5449H93.1554V34.1132H94.887V36.8962H96.1857L98.1029 34.1132H99.9582L97.7937 37.2672L100.082 40.5449H98.1029L96.1857 37.762Z" fill="#0D0D0D"/>
<path d="M107.384 34.979H104.787V40.5449H103.055V34.979H100.458V34.1132H107.384V34.979Z" fill="#0D0D0D"/>
<path d="M110.663 37.4112C110.663 37.6586 110.576 37.8771 110.403 38.0668C110.238 38.2482 110.016 38.3389 109.735 38.3389C109.455 38.3389 109.228 38.2482 109.055 38.0668C108.89 37.8771 108.808 37.6586 108.808 37.4112C108.808 37.1639 108.89 36.9495 109.055 36.7681C109.228 36.5784 109.455 36.4836 109.735 36.4836C110.007 36.4836 110.23 36.5784 110.403 36.7681C110.576 36.9495 110.663 37.1639 110.663 37.4112Z" fill="#0D0D0D"/>
<path d="M112.152 39.8647H112.523C112.63 39.8647 112.729 39.8441 112.819 39.8028C112.91 39.7534 112.988 39.675 113.054 39.5678C113.129 39.4606 113.186 39.3163 113.228 39.1349C113.277 38.9535 113.31 38.7226 113.327 38.4423L113.574 34.1132H119.511V40.5449H117.779V34.979H115.182L114.996 38.4423C114.955 39.2751 114.757 39.8647 114.403 40.211C114.056 40.5573 113.574 40.7305 112.955 40.7305C112.758 40.7305 112.576 40.7099 112.411 40.6686C112.321 40.6521 112.234 40.6315 112.152 40.6068V39.8647Z" fill="#0D0D0D"/>
<path d="M128.165 34.1132V40.5449H126.434V35.7211H126.31L123.465 40.5449H121.239V34.1132H122.97V38.937H123.094L125.939 34.1132H128.165Z" fill="#0D0D0D"/>
<path d="M133.424 42.7713V40.5449H133.239C132.695 40.5449 132.2 40.4707 131.754 40.3223C131.309 40.1739 130.926 39.9595 130.604 39.6791C130.283 39.3988 130.031 39.0607 129.85 38.6649C129.677 38.2691 129.59 37.8238 129.59 37.3291C129.59 36.8343 129.677 36.3891 129.85 35.9933C130.031 35.5975 130.283 35.2594 130.604 34.979C130.926 34.6987 131.309 34.4843 131.754 34.3359C132.2 34.1874 132.695 34.1132 133.239 34.1132H133.424V31.8868H135.156V34.1132H135.341C135.886 34.1132 136.38 34.1874 136.826 34.3359C137.271 34.4843 137.654 34.6987 137.976 34.979C138.298 35.2594 138.545 35.5975 138.718 35.9933C138.899 36.3891 138.99 36.8343 138.99 37.3291C138.99 37.8238 138.899 38.2691 138.718 38.6649C138.545 39.0607 138.298 39.3988 137.976 39.6791C137.654 39.9595 137.271 40.1739 136.826 40.3223C136.38 40.4707 135.886 40.5449 135.341 40.5449H135.156V42.7713H133.424ZM133.424 39.6791V34.979H133.239C132.991 34.979 132.756 35.0244 132.534 35.1151C132.319 35.1975 132.13 35.3336 131.965 35.5233C131.808 35.7129 131.68 35.9562 131.581 36.253C131.491 36.5499 131.445 36.9085 131.445 37.3291C131.445 37.7496 131.491 38.1083 131.581 38.4052C131.68 38.702 131.808 38.9453 131.965 39.1349C132.13 39.3246 132.319 39.4647 132.534 39.5555C132.756 39.6379 132.991 39.6791 133.239 39.6791H133.424ZM135.156 34.979V39.6791H135.341C135.589 39.6791 135.82 39.6379 136.034 39.5555C136.257 39.4647 136.446 39.3246 136.603 39.1349C136.768 38.9453 136.896 38.702 136.986 38.4052C137.085 38.1083 137.135 37.7496 137.135 37.3291C137.135 36.9085 137.085 36.5499 136.986 36.253C136.896 35.9562 136.768 35.7129 136.603 35.5233C136.446 35.3336 136.257 35.1975 136.034 35.1151C135.82 35.0244 135.589 34.979 135.341 34.979H135.156Z" fill="#0D0D0D"/>
<path d="M146.218 34.979H143.62V40.5449H141.889V34.979H139.291V34.1132H146.218V34.979Z" fill="#0D0D0D"/>
<path d="M149.496 37.4112C149.496 37.6586 149.41 37.8771 149.237 38.0668C149.072 38.2482 148.849 38.3389 148.569 38.3389C148.288 38.3389 148.062 38.2482 147.888 38.0668C147.723 37.8771 147.641 37.6586 147.641 37.4112C147.641 37.1639 147.723 36.9495 147.888 36.7681C148.062 36.5784 148.288 36.4836 148.569 36.4836C148.841 36.4836 149.063 36.5784 149.237 36.7681C149.41 36.9495 149.496 37.1639 149.496 37.4112Z" fill="#0D0D0D"/>
<path d="M156.365 39.4318L158.406 34.1132H160.942V40.5449H159.21V35.8448H159.086L157.293 40.5449H155.326L153.521 35.8448H153.397V40.5449H151.665V34.1132H154.201L156.242 39.4318H156.365Z" fill="#0D0D0D"/>
<path d="M166.132 39.9884C166.396 39.9884 166.644 39.9389 166.874 39.8399C167.105 39.741 167.307 39.5884 167.48 39.3823C167.654 39.1679 167.79 38.8917 167.889 38.5536C167.996 38.2155 168.049 37.8073 168.049 37.3291C168.049 36.8508 167.996 36.4427 167.889 36.1046C167.79 35.7665 167.654 35.4944 167.48 35.2882C167.307 35.0739 167.105 34.9172 166.874 34.8182C166.644 34.7193 166.396 34.6698 166.132 34.6698C165.868 34.6698 165.621 34.7193 165.39 34.8182C165.159 34.9172 164.957 35.0739 164.784 35.2882C164.611 35.4944 164.471 35.7665 164.364 36.1046C164.265 36.4427 164.215 36.8508 164.215 37.3291C164.215 37.8073 164.265 38.2155 164.364 38.5536C164.471 38.8917 164.611 39.1679 164.784 39.3823C164.957 39.5884 165.159 39.741 165.39 39.8399C165.621 39.9389 165.868 39.9884 166.132 39.9884ZM166.132 33.8658C166.685 33.8658 167.192 33.9442 167.654 34.1008C168.124 34.2493 168.524 34.4719 168.853 34.7688C169.183 35.0574 169.439 35.4202 169.62 35.8572C169.81 36.286 169.905 36.7766 169.905 37.3291C169.905 37.8898 169.81 38.3845 169.62 38.8133C169.439 39.2421 169.183 39.6049 168.853 39.9018C168.524 40.1904 168.124 40.4089 167.654 40.5573C167.192 40.714 166.685 40.7923 166.132 40.7923C165.572 40.7923 165.06 40.714 164.599 40.5573C164.137 40.4089 163.741 40.1904 163.411 39.9018C163.081 39.6049 162.822 39.2421 162.632 38.8133C162.451 38.3845 162.36 37.8898 162.36 37.3291C162.36 36.7766 162.451 36.286 162.632 35.8572C162.822 35.4202 163.081 35.0574 163.411 34.7688C163.741 34.4719 164.137 34.2493 164.599 34.1008C165.06 33.9442 165.572 33.8658 166.132 33.8658Z" fill="#0D0D0D"/>
<path d="M178.132 34.1132V40.5449H176.401V37.7001H173.061V40.5449H171.33V34.1132H173.061V36.8343H176.401V34.1132H178.132Z" fill="#0D0D0D"/>
<path d="M186.054 34.979H183.456V40.5449H181.725V34.979H179.127V34.1132H186.054V34.979Z" fill="#0D0D0D"/>
<path d="M188.092 38.5041C188.092 39.2875 188.566 39.6791 189.514 39.6791H191.246V37.3291H189.514C188.566 37.3291 188.092 37.7208 188.092 38.5041ZM191.246 36.4633C191.246 35.8696 191.089 35.4325 190.776 35.1522C190.471 34.8718 190.071 34.7317 189.576 34.7317C189.205 34.7317 188.842 34.7894 188.488 34.9048C188.133 35.012 187.816 35.1604 187.535 35.3501L187.103 34.608C187.284 34.4843 187.482 34.3771 187.696 34.2864C187.919 34.1957 188.146 34.1215 188.377 34.0637C188.607 33.9978 188.834 33.9483 189.057 33.9153C189.288 33.8823 189.502 33.8658 189.7 33.8658C190.228 33.8658 190.694 33.9277 191.098 34.0514C191.502 34.1751 191.844 34.3523 192.124 34.5832C192.405 34.8141 192.615 35.0903 192.755 35.4119C192.903 35.7253 192.978 36.0757 192.978 36.4633V40.5449H189.514C188.393 40.5449 187.564 40.3759 187.028 40.0378C186.501 39.6998 186.237 39.1885 186.237 38.5041C186.237 37.8197 186.501 37.3085 187.028 36.9704C187.564 36.6323 188.393 36.4633 189.514 36.4633H191.246Z" fill="#0D0D0D"/>
<path d="M196.002 40.5449H194.023L196.311 37.2672L194.147 34.1132H196.002L197.919 36.8962H198.971V34.1132H200.702V36.8962H201.754L203.671 34.1132H205.526L203.362 37.2672L205.65 40.5449H203.671L201.754 37.762H200.702V40.5449H198.971V37.762H197.919L196.002 40.5449Z" fill="#0D0D0D"/>
</g>
<defs>
<clipPath id="clip0_5_79">
<rect width="206" height="51.6606" fill="white" transform="translate(0 0.669695)"/>
</clipPath>
</defs>
</svg>
