<svg width="80" height="48" viewBox="0 0 80 48" fill="none" xmlns="http://www.w3.org/2000/svg">
<g clip-path="url(#clip0_36_1164)">
<g clip-path="url(#clip1_36_1164)">
<path fill-rule="evenodd" clip-rule="evenodd" d="M77.1633 3.24949C77.7465 1.41654 77.1633 0.0833841 74.5803 0.0833841H65.9983C63.832 0.0833841 62.8321 1.24976 62.2489 2.49978C62.2489 2.49978 57.8328 13.1647 51.6671 20.0801C49.6674 22.0799 48.7509 22.7464 47.6679 22.7464C47.0844 22.7464 46.3348 22.0799 46.3348 20.2469V3.16611C46.3348 0.99986 45.6682 0 43.835 0H30.3372C29.0041 0 28.171 0.99986 28.171 1.99973C28.171 4.08284 31.2537 4.58264 31.587 10.415V23.0797C31.587 25.8294 31.0871 26.3292 30.0039 26.3292C27.0877 26.3292 20.0055 15.5808 15.7562 3.33288C14.9228 0.916478 14.0897 0 11.9235 0H3.25798C0.758418 0 0.341797 1.16663 0.341797 2.4164C0.341797 4.66603 3.25798 15.9976 13.923 30.9952C21.0054 41.2435 31.0871 46.7426 40.169 46.7426C45.6682 46.7426 46.3348 45.4929 46.3348 43.41V35.6613C46.3348 33.1616 46.8346 32.7451 48.5844 32.7451C49.8341 32.7451 52.0838 33.4114 57.1663 38.3274C62.9987 44.1598 63.9985 46.8261 67.248 46.8261H75.8301C78.3297 46.8261 79.4962 45.5763 78.8297 43.1599C78.0798 40.7438 75.2469 37.2444 71.5807 33.0781C69.5811 30.7453 66.5815 28.1624 65.665 26.9124C64.4152 25.2462 64.7485 24.5796 65.665 23.0797C65.5818 23.0797 76.08 8.24881 77.1633 3.24949Z" fill="white"/>
</g>
</g>
<defs>
<clipPath id="clip0_36_1164">
<rect width="79" height="47.39" fill="white" transform="translate(0.333496)"/>
</clipPath>
<clipPath id="clip1_36_1164">
<rect width="78.9833" height="47.39" fill="white" transform="translate(0.341797)"/>
</clipPath>
</defs>
</svg>
