<svg aria-hidden="true" xmlns="http://www.w3.org/2000/svg" xmlns:xlink="http://www.w3.org/1999/xlink"><symbol viewBox="0 0 13 7" fill="none" id="icon-arrow" xmlns="http://www.w3.org/2000/svg">
<path d="M12.1428 0H0.142822L6.14282 7L12.1428 0Z" fill="currentColor"/>
</symbol><symbol viewBox="0 0 28 17" fill="none" id="icon-arrow-line" xmlns="http://www.w3.org/2000/svg">
<g clip-path="url(#aclip0_40_440)">
<g clip-path="url(#aclip1_40_440)">
<g clip-path="url(#aclip2_40_440)">
<path d="M26.7262 9.18133C27.1025 8.80495 27.1025 8.19475 26.7262 7.81837L20.5928 1.68511C20.2165 1.30874 19.6064 1.30874 19.2299 1.68511C18.8536 2.06148 18.8536 2.67169 19.2299 3.04806L24.6818 8.49985L19.2299 13.9517C18.8536 14.328 18.8536 14.9382 19.2299 15.3146C19.6064 15.691 20.2165 15.691 20.5928 15.3146L26.7262 9.18133ZM0.0234375 9.4636H26.0447V7.5361H0.0234375V9.4636Z" fill="currentColor"/>
</g>
</g>
</g>
<defs>
<clipPath id="aclip0_40_440">
<rect width="27" height="15.42" fill="currentColor" transform="translate(0.0159302 0.790039)"/>
</clipPath>
<clipPath id="aclip1_40_440">
<rect width="27" height="15.42" fill="currentColor" transform="translate(0.0159302 0.790039)"/>
</clipPath>
<clipPath id="aclip2_40_440">
<rect width="26.985" height="15.42" fill="currentColor" transform="translate(0.0234375 0.790039)"/>
</clipPath>
</defs>
</symbol><symbol viewBox="0 0 25 25" fill="none" id="icon-wh" xmlns="http://www.w3.org/2000/svg">
<g clip-path="url(#cclip0_36_1229)">
<mask id="cmask0_36_1229" maskUnits="userSpaceOnUse" x="0" y="0" width="25" height="25">
<path d="M25 0H0V25H25V0Z" fill="currentColor"/>
</mask>
<g mask="url(#cmask0_36_1229)">
<path fill-rule="evenodd" clip-rule="evenodd" d="M12.4964 0C5.60535 0 0 5.60691 0 12.4999C0 15.2335 0.881585 17.7688 2.38021 19.8265L0.822703 24.4707L5.62731 22.9351C7.60344 24.2432 9.96167 25 12.5036 25C19.3946 25 25 19.3929 25 12.5001C25 5.60714 19.3946 0.00020663 12.5036 0.00020663L12.4964 0ZM9.00669 6.34939C8.76431 5.76889 8.58061 5.74691 8.21343 5.73197C8.0884 5.72472 7.94906 5.71746 7.7946 5.71746C7.3169 5.71746 6.81743 5.85705 6.51618 6.16565C6.14898 6.54041 5.23793 7.41478 5.23793 9.20791C5.23793 11.001 6.54561 12.7353 6.72185 12.9779C6.90555 13.2201 9.27124 16.9533 12.9444 18.4748C15.8169 19.6651 16.6693 19.5549 17.323 19.4152C18.278 19.2095 19.4755 18.5037 19.7767 17.6516C20.078 16.799 20.078 16.0715 19.9897 15.9171C19.9016 15.7629 19.659 15.6749 19.2919 15.491C18.9246 15.3073 17.1392 14.4254 16.8013 14.3078C16.4706 14.1829 16.1549 14.2271 15.9053 14.5799C15.5525 15.0723 15.2072 15.572 14.928 15.8731C14.7076 16.1084 14.3475 16.1378 14.0464 16.0127C13.6424 15.8439 12.5111 15.4468 11.1151 14.2049C10.0351 13.2424 9.3005 12.0447 9.08756 11.6846C8.87442 11.3173 9.06556 11.1039 9.23434 10.9056C9.41804 10.6777 9.59429 10.5162 9.77799 10.3029C9.96169 10.09 10.0645 9.97962 10.1821 9.72972C10.3071 9.48728 10.2188 9.23736 10.1307 9.05361C10.0425 8.86986 9.30795 7.07673 9.00669 6.34939Z" fill="currentColor"/>
</g>
</g>
<defs>
<clipPath id="cclip0_36_1229">
<rect width="25" height="25" fill="currentColor"/>
</clipPath>
</defs>
</symbol></svg>