<svg width="75" height="74" viewBox="0 0 75 74" fill="none" xmlns="http://www.w3.org/2000/svg">
<g clip-path="url(#clip0_40_434)">
<path fill-rule="evenodd" clip-rule="evenodd" d="M74.1709 18.4177C74.1709 8.24747 65.9235 0 55.7532 0C44.5037 0 30.1673 0 18.9177 0C8.74747 0 0.5 8.24747 0.5 18.4177C0.5 29.6673 0.5 44.0037 0.5 55.2532C0.5 65.4235 8.74747 73.6709 18.9177 73.6709C30.1673 73.6709 44.5037 73.6709 55.7532 73.6709C65.9235 73.6709 74.1709 65.4235 74.1709 55.2532C74.1709 44.0037 74.1709 29.6673 74.1709 18.4177Z" fill="url(#paint0_radial_40_434)"/>
<path d="M48.2304 11.0686C55.9327 11.1423 63.0235 17.7543 63.1008 25.9392C63.1267 33.2031 63.1267 40.4671 63.1008 47.731C63.0272 55.4038 56.4152 62.5242 48.2304 62.6015C40.9664 62.6273 33.7024 62.6273 26.4385 62.6015C18.7325 62.5278 11.6454 55.9159 11.568 47.731C11.5423 40.4671 11.5423 33.2031 11.568 25.9392C11.638 18.2295 18.2352 11.146 26.4385 11.0686C33.7024 11.0429 40.9664 11.0429 48.2304 11.0686ZM26.5379 14.5496C20.5595 14.568 15.1079 19.7508 15.049 25.9613C15.0269 33.2104 15.0269 40.4597 15.049 47.7089C15.1042 53.621 20.1617 59.0616 26.4606 59.1206C33.7098 59.1427 40.959 59.1427 48.2083 59.1206C54.1351 59.0653 59.561 54.0078 59.6199 47.7089C59.642 40.4597 59.642 33.2104 59.6199 25.9613C59.5646 20.0086 54.4077 14.6086 48.2083 14.5496C40.9848 14.5275 33.7614 14.5496 26.5379 14.5496Z" fill="white"/>
<path d="M37.4242 23.9424C43.3842 23.9976 48.939 28.5947 50.0294 34.4847C50.8066 38.684 49.3405 43.2368 46.2463 46.191C42.8022 49.4694 37.4722 50.6408 32.9045 48.9684C27.7991 47.1008 24.2077 41.7192 24.4471 36.2675C24.7381 29.755 30.4918 23.9645 37.3358 23.9424C37.3653 23.9424 37.3948 23.9424 37.4242 23.9424ZM37.2769 27.4307C33.0224 27.4712 29.011 30.698 28.127 34.8899C27.2318 39.1296 29.6704 43.8336 33.6744 45.5243C38.0468 47.3734 43.6936 45.2996 45.8043 40.9825C47.9887 36.5217 45.9296 30.4623 41.3178 28.3074C40.0617 27.7217 38.6656 27.427 37.2769 27.4307Z" fill="white"/>
<path fill-rule="evenodd" clip-rule="evenodd" d="M53.9114 22.9372C53.9114 22.2263 53.6277 21.5448 53.1268 21.0439C52.6259 20.5429 51.9444 20.2593 51.2335 20.2593C51.1782 20.2593 51.1192 20.2593 51.064 20.2593C50.3531 20.2593 49.6716 20.5429 49.1707 21.0439C48.6697 21.5448 48.3861 22.2263 48.3861 22.9372C48.3861 22.9667 48.3861 22.9924 48.3861 23.0219C48.3861 23.7549 48.677 24.4585 49.1964 24.9743C49.7122 25.4936 50.4157 25.7846 51.1487 25.7846C52.6737 25.7846 53.9114 24.5469 53.9114 23.0219C53.9114 22.9924 53.9114 22.9667 53.9114 22.9372Z" fill="white"/>
</g>
<defs>
<radialGradient id="paint0_radial_40_434" cx="0" cy="0" r="1" gradientUnits="userSpaceOnUse" gradientTransform="translate(0.5 71.8291) scale(102.893)">
<stop stop-color="#FF8100"/>
<stop offset="0.19" stop-color="#FF7209"/>
<stop offset="0.32" stop-color="#F55E16"/>
<stop offset="0.48" stop-color="#D92938"/>
<stop offset="1" stop-color="#9100FF"/>
</radialGradient>
<clipPath id="clip0_40_434">
<rect width="74" height="74" fill="white" transform="translate(0.5)"/>
</clipPath>
</defs>
</svg>
