<svg width="309" height="77" viewBox="0 0 309 77" fill="none" xmlns="http://www.w3.org/2000/svg">
<g clip-path="url(#clip0_23_557)">
<path d="M39.4211 77.0003C39.2218 76.7472 39.0556 76.472 38.823 76.2629C34.1044 72.0255 29.3748 67.8101 24.6562 63.5727C19.561 59.0051 14.5102 54.3824 9.38178 49.8588C6.51298 47.3164 3.69956 44.7079 0.841835 42.1654C-0.254735 41.1859 -0.265811 40.9658 0.797529 39.8981C2.18209 38.5114 3.65526 37.2016 5.19488 35.9909C7.5874 34.0868 9.90238 32.0837 12.1841 30.0585C12.5497 29.7393 12.8487 29.3101 13.3915 29.2881C13.4912 29.3761 13.613 29.4422 13.613 29.4972C13.613 31.0711 13.8013 32.645 13.5355 34.2079C13.3582 35.2315 12.8709 36.068 12.1287 36.7834C11.2869 37.6088 10.4119 38.4233 9.76946 39.4359C9.22671 40.3054 9.21564 40.3164 10.0131 40.9878C16.1052 46.1497 22.2083 51.3117 28.3004 56.4736C31.7452 59.4013 35.1789 62.34 38.6347 65.2566C40.0303 66.4343 40.0082 66.3683 41.4149 65.1466C44.4388 62.5051 47.4959 59.8966 50.5641 57.2991C56.1687 52.5444 61.7845 47.8117 67.4114 43.068C68.2421 42.3636 69.1171 41.7032 70.0143 40.9878C69.4605 39.59 68.6076 38.4123 67.4114 37.5428C66.1043 36.5853 65.5394 35.3966 65.617 33.8117C65.6723 32.645 65.617 31.4673 65.5948 30.2897C65.5948 30.0585 65.5727 29.8384 65.916 29.5632C70.6124 33.3824 75.4086 37.1246 80.0496 41.0868C79.8502 41.7582 79.3407 42.0994 78.9087 42.4846C74.7883 46.1607 70.6568 49.8148 66.5252 53.4909C61.9507 57.5522 57.3982 61.6246 52.8126 65.6749C48.8804 69.1529 45.0369 72.7189 41.0051 76.0868C40.6949 76.351 40.3294 76.5711 40.263 77.0224H39.4322L39.4211 77.0003Z" fill="#D5DCBB"/>
<path d="M309 24.0928C308.136 24.2579 307.261 24.1588 306.386 24.1698C305.167 24.1918 305.134 24.2138 305.145 25.3805C305.145 28.3192 305.168 31.2469 305.168 34.1855C305.168 35.6494 305.068 35.7484 303.628 35.7484C303.03 35.7484 302.432 35.7484 301.833 35.7374C300.981 35.7044 300.792 35.5283 300.737 34.6918C300.704 34.1085 300.726 33.5141 300.726 32.9308C300.726 30.4434 300.726 27.967 300.726 25.4796C300.726 24.4009 300.715 24.4009 299.574 24.3569C299.064 24.3349 298.566 24.3569 298.056 24.3239C297.004 24.2799 296.849 24.1478 296.827 23.1572C296.816 22.2987 296.838 21.4403 296.805 20.5818C296.783 20.0204 296.971 19.7233 297.569 19.7453C301.368 19.8884 305.19 19.5141 308.989 20.0204V24.0928H309Z" fill="#D5DCBB"/>
<path d="M38.679 0C38.967 0.220126 38.9891 0.451258 38.9891 0.671384C39.0999 9.9827 39.2218 19.283 39.1885 28.5943C39.1774 32.2594 39.1331 35.9135 39.2218 39.5786C39.3879 46.1274 39.4322 52.6761 39.3768 59.2248C39.3768 59.8082 39.4322 60.4025 39.4211 60.9858C39.4211 61.5252 39.111 61.7233 38.6125 61.5141C38.2803 61.3711 37.9701 61.1619 37.671 60.9528C34.5696 58.7406 31.6898 56.2862 29.1533 53.4686C27.525 51.6635 26.2291 49.6494 25.5534 47.294C25.3429 46.5456 25.2765 45.7862 25.2765 45.0157C25.2765 36.0236 25.2765 27.0204 25.2765 18.0283C25.2765 15.8931 25.4869 13.8019 26.2401 11.7657C27.1706 9.25629 28.9428 7.37421 30.9698 5.71226C33.1519 3.91824 35.4114 2.20126 37.6378 0.462264C37.9258 0.242138 38.2249 0.0220126 38.6569 0.0110063L38.679 0Z" fill="#D5DCBB"/>
<path d="M39.7645 0.0222903C40.5066 -0.0217349 41.0604 0.330466 41.5589 0.70468C44.2615 2.72984 47.0639 4.63393 49.5118 6.96726C52.015 9.35562 53.4993 12.1842 53.8537 15.6402C54.0088 17.1701 54.0863 18.7 54.0863 20.2298C54.0863 27.9563 54.042 35.6937 54.1085 43.4201C54.1306 46.678 53.1227 49.4956 51.1289 52.082C48.4595 55.538 45.203 58.3666 41.7472 61.0081C41.6696 61.0632 41.6032 61.1182 41.5256 61.1622C41.1269 61.3603 40.7835 61.8336 40.2961 61.5695C39.8088 61.3053 40.2075 60.832 40.2075 60.4578C40.2075 59.9625 40.2297 59.4673 40.2297 58.972C40.2075 50.244 40.1743 41.527 40.1411 32.799C40.1411 29.233 40.0857 25.6559 40.1411 22.0899C40.2075 17.8855 40.13 13.6921 39.7534 9.49871C39.4986 6.52701 39.7091 3.5333 39.6205 0.550592C39.6205 0.385498 39.7091 0.209397 39.7534 0.0332966L39.7645 0.0222903Z" fill="#D5DCBB"/>
<path d="M55.1718 48.3066V15.0125C55.7035 14.6934 56.0137 15.0125 56.3016 15.2767C58.0185 16.7735 59.7243 18.2924 61.4965 19.7342C62.7038 20.7138 63.014 21.7484 63.0029 23.2012C62.9807 25.6336 63.2355 28.077 63.3241 30.5094C63.446 34.1635 63.5124 37.8286 63.2687 41.4827C63.2244 42.165 63.0251 42.6823 62.4602 43.1116C60.5218 44.5644 58.6055 46.0503 56.6782 47.5031C56.2906 47.8003 55.9029 48.1305 55.1829 48.2845L55.1718 48.3066Z" fill="#D5DCBB"/>
<path d="M102.601 25.1829C102.601 28.1656 102.601 31.1483 102.601 34.131C102.601 34.4502 102.601 34.7694 102.579 35.0775C102.546 35.4958 102.302 35.7489 101.87 35.7489C100.818 35.7489 99.7546 35.7489 98.7023 35.7489C98.3036 35.7489 98.1264 35.5398 98.0821 35.1766C98.0488 34.7694 97.9935 34.3621 97.9935 33.9659C98.0156 29.2662 97.8716 24.5665 98.071 19.8778C98.1042 19.2395 97.8716 18.9643 97.207 18.9753C95.9222 18.9973 94.6373 18.9753 93.3524 18.9753C92.3888 18.9863 92.3666 19.0194 92.3555 19.9879C92.3555 23.697 92.3555 27.3951 92.3555 31.1043C92.3555 32.2819 92.3555 33.4486 92.3445 34.6263C92.3223 35.5398 92.134 35.7269 91.1925 35.7489C90.3618 35.7709 89.5421 35.7159 88.7114 35.7269C88.0689 35.7379 87.792 35.4077 87.7367 34.8354C87.7145 34.6153 87.7367 34.3841 87.7367 34.153C87.7367 28.1876 87.7367 22.2222 87.7367 16.2568C87.7367 16.0256 87.7367 15.8055 87.7477 15.5744C87.8253 14.6829 87.9249 14.5618 88.8332 14.5508C90.5279 14.5288 92.2337 14.5508 93.9284 14.5508C96.2766 14.5508 98.6137 14.5508 100.962 14.5508C102.601 14.5508 102.623 14.5508 102.623 16.2348C102.646 19.2175 102.623 22.2002 102.623 25.1829H102.601Z" fill="#D5DCBB"/>
<path d="M23.8808 14.8691C23.5707 26.0845 24.49 37.1349 24.2353 48.1962C23.4267 48.3283 23.028 47.91 22.6181 47.5798C20.7684 46.094 18.9297 44.5971 16.9691 43.2544C16.2602 42.7701 15.9279 42.1537 15.939 41.3172C15.9833 36.3534 15.8283 31.3896 16.1052 26.4257C16.1827 24.9839 16.1605 23.5311 16.1162 22.0893C16.0941 21.2858 16.4042 20.7795 17.0467 20.2732C18.7303 18.9415 20.3364 17.5217 21.9646 16.1349C22.5074 15.6726 23.0501 15.1993 23.8698 14.8691H23.8808Z" fill="#D5DCBB"/>
<path d="M223.966 25.2159C223.966 22.1011 223.966 18.9863 223.966 15.8715C223.966 14.5618 223.977 14.5508 225.229 14.5508C229.316 14.5508 233.403 14.5508 237.49 14.5728C238.742 14.5728 238.842 14.6498 238.842 15.8825C238.864 21.892 238.864 27.9014 238.864 33.8998C238.864 34.252 238.797 34.6152 238.742 34.9674C238.665 35.4957 238.343 35.7599 237.801 35.7599C236.97 35.7599 236.15 35.7819 235.319 35.7599C234.278 35.7379 234.223 35.6829 234.223 34.6813C234.223 32.5571 234.223 30.4329 234.223 28.3086C234.223 25.6011 234.223 22.8935 234.223 20.175C234.223 18.9973 234.201 18.9863 232.971 18.9753C231.819 18.9643 230.678 18.9973 229.526 18.9753C228.873 18.9533 228.629 19.2174 228.64 19.8558C228.707 23.741 228.43 27.6152 228.596 31.5005C228.64 32.6231 228.596 33.7568 228.596 34.8904C228.596 35.5508 228.297 35.859 227.566 35.7929C226.791 35.7269 226.004 35.7489 225.229 35.7489C223.999 35.7489 223.988 35.7489 223.988 34.5602C223.988 31.4454 223.988 28.3307 223.988 25.2159C223.988 25.2159 223.988 25.2159 223.977 25.2159H223.966Z" fill="#D5DCBB"/>
<path d="M141.413 29.002C141.956 28.0225 142.022 27.153 142.255 26.3385C142.764 24.5555 143.241 22.7725 143.728 20.9785C143.916 20.2851 144.282 19.8998 145.079 19.9218C146.276 19.9549 147.472 19.9218 148.668 19.8778C149.233 19.8558 149.399 20.142 149.466 20.5822C149.51 20.8464 149.499 21.1215 149.499 21.3967C149.499 25.469 149.499 29.5303 149.488 33.6027C149.488 33.8338 149.488 34.0539 149.466 34.2851C149.377 35.5948 149.189 35.7599 147.893 35.7489C147.339 35.7489 146.785 35.7489 146.243 35.7269C144.947 35.6939 144.725 35.5068 144.88 34.3071C145.079 32.8652 144.935 31.4124 145.046 29.9706C145.057 29.8055 145.013 29.6294 144.969 29.1781C144.371 30.2678 144.149 31.2143 143.828 32.1168C143.651 32.6231 143.573 33.1624 143.451 33.6907C143.052 35.3967 142.2 35.903 140.45 35.5288C139.829 35.3967 139.696 34.9344 139.563 34.4502C139.242 33.1844 138.81 31.9407 138.644 30.631C138.611 30.4108 138.555 30.1907 138.345 30.0256C137.957 30.4659 137.979 30.9942 137.968 31.5225C137.957 32.6561 137.946 33.7788 137.968 34.9124C137.968 35.5288 137.769 35.8369 137.093 35.8039C136.174 35.7599 135.255 35.7379 134.335 35.7379C133.682 35.7379 133.427 35.4187 133.449 34.8134C133.449 34.5932 133.449 34.3621 133.449 34.131C133.449 29.8385 133.449 25.5461 133.449 21.2426C133.449 19.7788 133.449 19.7788 135 19.7898C135.831 19.7898 136.65 19.8008 137.481 19.8228C138.677 19.8448 138.788 19.9218 139.098 21.0335C139.707 23.2017 140.294 25.381 140.904 27.5602C141.025 27.9895 141.192 28.4077 141.402 29.002H141.413Z" fill="#D5DCBB"/>
<path d="M109.325 35.1649C109.225 36.1555 109.347 37.1461 109.38 38.1256C109.413 39.0281 109.435 39.9307 109.458 40.8332C109.469 41.4385 109.203 41.7577 108.549 41.7247C107.863 41.6917 107.176 41.7137 106.489 41.7027C105.566 41.688 105.105 41.2331 105.105 40.3379C105.105 34.6917 105.105 29.0454 105.105 23.4102C105.105 22.5957 105.105 21.7813 105.127 20.9778C105.16 20.0533 105.337 19.8332 106.268 19.8992C107.264 19.9652 108.295 19.8222 109.269 20.1744C109.624 20.3064 109.989 20.3395 110.31 20.0863C111.086 19.459 111.939 19.3269 112.891 19.602C114.121 19.9652 115.162 20.5706 115.815 21.6932C116.347 22.6068 116.713 23.5753 116.835 24.6209C117.089 26.8662 117.211 29.1225 116.724 31.3457C116.491 32.4134 116.048 33.4039 115.339 34.2624C114.01 35.8583 112.371 36.2876 110.421 35.5501C110.089 35.4181 109.79 35.1649 109.336 35.1759L109.325 35.1649ZM109.413 27.7467C109.458 28.5171 109.435 29.4196 109.579 30.3002C109.735 31.3127 110.344 31.6209 111.374 31.4228C111.95 31.3127 112.238 30.9495 112.437 30.4763C113.235 28.5832 112.98 26.6901 112.393 24.819C112.193 24.1917 111.418 23.8285 110.709 23.8945C110.056 23.9495 109.668 24.3237 109.557 25.1822C109.458 25.9857 109.458 26.7891 109.413 27.7357V27.7467Z" fill="#D5DCBB"/>
<path d="M152.035 24.7092C152.002 22.0016 152.501 19.4482 153.907 17.0488C156.101 13.3177 162.17 13.1195 164.718 16.5975C165.803 18.0834 166.258 19.7563 166.59 21.4843C166.723 22.1447 166.49 22.4088 165.781 22.4309C164.862 22.4639 163.943 22.4089 163.023 22.4419C162.314 22.4749 162.026 22.1007 161.927 21.4953C161.871 21.1872 161.86 20.857 161.772 20.5598C161.439 19.4151 160.775 18.8648 159.601 18.8208C158.571 18.7768 157.684 19.107 157.252 20.1306C157.053 20.5818 156.809 21.0551 156.765 21.5283C156.51 23.9607 156.311 26.3931 156.754 28.8255C156.887 29.5739 157.097 30.3444 157.718 30.8837C158.847 31.8522 160.963 31.357 161.594 29.9812C161.628 29.9041 161.65 29.8051 161.683 29.728C162.126 28.51 163.031 27.923 164.397 27.967C166.623 28.0331 166.645 28.0771 166.18 30.2453C165.648 32.7107 164.375 34.6368 161.894 35.4843C157.817 36.8821 154.506 35.1101 153.032 31.5221C152.246 29.596 152.157 27.5708 152.024 25.5346C152.002 25.2595 152.024 24.9953 152.024 24.7202L152.035 24.7092Z" fill="#D5DCBB"/>
<path d="M186.085 35.3855C185.929 36.255 186.062 37.1465 186.096 38.027C186.129 38.8855 186.184 39.744 186.151 40.5915C186.107 41.538 185.918 41.6811 184.999 41.6921C184.312 41.6921 183.626 41.7141 182.939 41.7031C182.086 41.6811 181.931 41.549 181.92 40.7896C181.898 34.7911 181.875 28.7817 181.864 22.7833C181.864 22.1119 181.975 21.4295 181.975 20.7581C181.975 20.0977 182.307 19.8886 182.917 19.9216C183.559 19.9547 184.213 19.8996 184.844 20.0207C185.785 20.1968 186.66 20.0977 187.524 19.7345C188.909 19.1512 190.116 19.5364 191.235 20.4059C192.442 21.3525 193.162 22.6072 193.417 24.06C193.849 26.4704 193.849 28.9028 193.417 31.3242C193.295 32.0396 193.007 32.711 192.653 33.3383C191.434 35.4955 189.651 36.211 187.214 35.5616C186.871 35.4735 186.539 35.2644 186.085 35.3635V35.3855ZM186.007 27.4499C186.04 28.3084 186.007 29.1669 186.151 30.0144C186.339 31.016 186.793 31.5333 187.569 31.5883C188.344 31.6433 188.854 31.2361 189.186 30.2235C189.828 28.2424 189.585 26.3053 188.898 24.3902C188.754 23.972 188.466 23.8729 188.056 23.8619C186.727 23.8399 186.096 24.3682 186.007 25.6889C185.974 26.2723 186.007 26.8666 186.007 27.4499Z" fill="#D5DCBB"/>
<path d="M245.731 35.1867C245.51 35.8251 245.665 36.4964 245.687 37.1568C245.72 38.2905 245.787 39.4131 245.753 40.5468C245.72 41.5483 245.499 41.6914 244.491 41.6804C243.848 41.6804 243.206 41.6804 242.563 41.6804C241.965 41.6804 241.6 41.4493 241.633 40.7999C241.644 40.5798 241.633 40.3486 241.633 40.1175C241.633 33.888 241.633 27.6474 241.633 21.4178C241.633 19.899 241.655 19.8769 243.15 19.921C243.837 19.943 244.524 20.009 245.211 20.031C245.897 20.053 246.584 20.053 247.227 19.7449C248.379 19.1836 249.475 19.4367 250.494 20.0641C252.266 21.1537 253.108 22.8486 253.252 24.8188C253.396 26.6568 253.584 28.5059 253.341 30.3659C253.186 31.5546 252.864 32.6663 252.244 33.6788C250.981 35.748 248.955 36.3754 246.684 35.4178C246.396 35.2968 246.141 35.0766 245.731 35.1867ZM249.276 27.7685C249.11 26.7008 249.087 25.6222 248.6 24.6097C248.279 23.9493 247.814 23.7842 247.171 23.8722C246.396 23.9713 245.953 24.4335 245.809 25.182C245.488 26.8329 245.51 28.4949 245.776 30.1458C245.798 30.2779 245.842 30.41 245.886 30.542C246.13 31.2574 246.717 31.4225 247.404 31.4556C248.113 31.4996 248.489 31.1584 248.733 30.542C249.076 29.6395 249.087 28.693 249.276 27.7795V27.7685Z" fill="#D5DCBB"/>
<path d="M214.44 26.9323C214.85 26.7452 214.861 26.338 214.983 26.0078C215.614 24.3128 216.246 22.6288 216.844 20.9229C217.088 20.2405 217.497 19.8442 218.24 19.8332C219.159 19.8112 220.078 19.8002 220.998 19.8112C221.496 19.8112 221.751 20.0974 221.773 20.5817C221.795 21.0329 221.828 21.4842 221.828 21.9354C221.828 26.0958 221.828 30.2452 221.828 34.4056C221.828 35.6823 221.718 35.7703 220.388 35.7703C219.436 35.7703 218.483 35.7703 217.42 35.7703V27.7247C216.921 28.3521 216.8 28.8694 216.622 29.3647C215.936 31.2247 215.238 33.0848 214.551 34.9449C214.374 35.4181 214.075 35.6933 213.532 35.7043C212.657 35.7043 211.782 35.7153 210.918 35.7373C210.287 35.7593 209.988 35.4732 209.988 34.8458C209.988 34.2625 209.988 33.6681 209.988 33.0848C209.988 29.1556 209.988 25.2263 209.988 21.2971C209.988 19.9543 210.098 19.8442 211.472 19.8002C212.026 19.7892 212.579 19.8002 213.122 19.8222C214.141 19.8773 214.285 20.0093 214.33 21.0439C214.352 21.5832 214.285 22.1225 214.263 22.6619C214.23 23.6964 214.186 24.742 214.186 25.7766C214.186 26.1729 214.141 26.5911 214.462 26.9213L214.44 26.9323Z" fill="#D5DCBB"/>
<path d="M288.176 30.3772C287.966 31.5438 288.11 32.7105 288.077 33.8662C288.065 34.2734 288.065 34.6806 288.077 35.0879C288.077 35.6162 287.811 35.8033 287.301 35.7923C286.293 35.7703 285.274 35.7592 284.266 35.7482C283.801 35.7482 283.602 35.5171 283.591 35.0769C283.591 34.7577 283.568 34.4495 283.568 34.1303C283.568 29.8379 283.568 25.5454 283.568 21.253C283.568 21.0218 283.568 20.8017 283.568 20.5706C283.557 20.0643 283.812 19.7891 284.311 19.8001C285.363 19.8331 286.426 19.8772 287.478 19.9432C288.032 19.9872 288.077 20.4275 288.077 20.8457C288.077 21.9353 288.077 23.014 288.077 24.1036C288.077 24.5769 288.077 25.0611 288.077 25.7655C288.708 25.3033 288.907 24.863 289.118 24.4228C289.616 23.3441 289.904 22.2105 290.248 21.0879C290.558 20.0643 290.735 19.9322 291.798 19.9102C293.172 19.8772 294.534 19.9102 295.863 19.9102C296.218 20.2954 295.908 20.5596 295.775 20.8127C294.9 22.5077 294.047 24.2026 293.116 25.8646C292.673 26.657 292.629 27.3725 293.039 28.1759C293.991 30.025 294.911 31.896 295.852 33.7561C296.018 34.0753 296.207 34.3945 296.351 34.7247C296.694 35.5061 296.572 35.7262 295.741 35.7482C294.313 35.7923 292.895 35.6822 291.477 35.5501C290.879 35.4951 290.624 35.0989 290.436 34.6146C290.004 33.4699 289.583 32.3253 289.14 31.1916C288.918 30.6413 288.907 30.6413 288.176 30.3772Z" fill="#D5DCBB"/>
<path d="M273.943 29.9811C275.416 31.9183 276.679 32.0944 278.374 30.6745C279.005 30.1462 279.193 30.1462 279.747 30.6966C281.386 32.3035 281.276 33.5912 279.371 34.901C276.568 36.8271 271.528 36.0126 270.033 31.6981C269.346 29.728 269.391 27.7028 269.612 25.6777C269.69 24.9183 269.867 24.1588 270.1 23.4324C270.875 21.055 273.267 19.3711 275.726 19.4261C278.052 19.4811 280.079 21.0661 280.822 23.4874C281.309 25.0944 281.53 26.7453 281.464 28.4293C281.42 29.4749 281.242 29.717 280.179 29.728C278.939 29.739 277.709 29.662 276.468 29.6069C275.649 29.5629 274.829 29.5959 273.954 29.9701L273.943 29.9811ZM277.111 25.9088C277.188 25.6667 277.222 25.6227 277.211 25.5896C277.044 24.7972 276.601 24.1258 275.826 23.8947C274.984 23.6415 274.563 24.456 274.065 24.9293C273.533 25.4355 273.688 25.8428 274.408 25.8978C275.305 25.9639 276.214 25.9088 277.111 25.9088Z" fill="#D5DCBB"/>
<path d="M195.566 27.7905C195.488 25.7654 195.909 23.8393 196.95 22.0782C198.778 18.9965 203.408 18.5342 205.801 21.2198C206.953 22.5075 207.606 24.0154 207.783 25.7323C207.994 27.8565 208.038 29.9698 207.229 31.9949C206.399 34.0861 204.892 35.4179 202.633 35.8251C200.96 36.1333 199.454 35.715 198.158 34.6254C196.452 33.1836 195.721 31.2905 195.577 29.1333C195.544 28.682 195.577 28.2308 195.577 27.7795L195.566 27.7905ZM203.607 27.3833C203.53 26.7449 203.696 25.8754 203.187 25.094C202.788 24.4776 202.4 23.7732 201.558 23.8503C200.75 23.9273 200.329 24.6317 200.107 25.3141C199.542 27.0311 199.686 28.7701 200.24 30.476C200.44 31.1034 200.838 31.5987 201.625 31.5547C202.5 31.5106 202.976 31.1804 203.253 30.366C203.563 29.4635 203.63 28.5169 203.607 27.3723V27.3833Z" fill="#D5DCBB"/>
<path d="M255.368 27.7575C255.368 25.9194 255.423 24.2685 256.221 22.7166C257.539 20.1301 260.596 18.8204 263.299 19.7889C265.026 20.4163 266.223 21.693 266.854 23.3549C267.984 26.3266 268.039 29.3424 266.921 32.3471C266.034 34.7134 264.174 35.8031 261.748 35.9351C259.643 36.0452 257.926 35.2087 256.719 33.4257C255.523 31.6427 255.268 29.6615 255.368 27.7575ZM263.42 27.9336C263.321 26.7559 263.254 25.7323 262.734 24.7858C262.435 24.2354 262.058 23.8392 261.36 23.8282C260.64 23.8282 260.275 24.2905 260.031 24.8408C259.145 26.8109 259.134 28.781 260.131 30.7071C260.629 31.6647 261.017 31.7527 262.014 31.3895C262.667 31.1474 262.944 30.6521 263.077 30.0798C263.254 29.3314 263.321 28.5719 263.42 27.9446V27.9336Z" fill="#D5DCBB"/>
<path d="M118.85 28.1866C118.906 25.9854 119.205 24.2354 119.958 22.5514C121.387 19.3596 126.438 17.9838 129.462 21.6159C129.871 22.1112 130.215 22.6395 130.447 23.2338C131.544 26.1725 131.655 29.1442 130.492 32.0829C129.384 34.8785 126.704 36.3313 123.779 35.792C121.708 35.4068 119.581 33.2055 119.183 30.8942C119.005 29.8816 118.806 28.847 118.873 28.1756L118.85 28.1866ZM126.837 27.6693C126.837 26.7338 126.936 25.7763 126.427 24.9068C125.662 23.597 124.455 23.553 123.658 24.8407C123.425 25.2149 123.203 25.6552 123.137 26.0844C122.915 27.5703 122.927 29.0341 123.525 30.4539C123.802 31.1143 124.222 31.4995 124.92 31.5436C125.618 31.5876 126.139 31.2024 126.482 30.4539C126.881 29.5624 126.859 28.6159 126.837 27.6693Z" fill="#D5DCBB"/>
<path d="M176.038 29.8712C176.038 31.401 176.049 32.9419 176.038 34.4718C176.027 35.5504 175.839 35.7265 174.753 35.7485C174.111 35.7595 173.468 35.7485 172.826 35.7265C171.818 35.6935 171.652 35.5394 171.619 34.5268C171.597 33.7564 171.619 32.997 171.619 32.2265C171.619 29.9262 171.619 27.6259 171.619 25.3256C171.619 24.4231 171.597 24.412 170.722 24.368C170.079 24.335 169.437 24.368 168.794 24.324C167.908 24.28 167.742 24.1149 167.72 23.2784C167.698 22.3759 167.742 21.4734 167.72 20.5709C167.709 20.0536 167.986 19.8334 168.451 19.7674C168.672 19.7344 168.905 19.7344 169.138 19.7344C172.35 19.8114 175.562 19.6573 178.774 19.8995C179.871 19.9875 179.915 19.9875 179.937 21.0881C179.959 21.9026 179.937 22.7171 179.937 23.5205C179.937 24.0268 179.693 24.258 179.173 24.2359C178.53 24.2029 177.888 24.1919 177.257 24.1699C176.149 24.1259 176.06 24.2029 176.049 25.2595C176.038 26.7894 176.049 28.3303 176.049 29.8602H176.071L176.038 29.8712Z" fill="#D5DCBB"/>
<path d="M215.67 18.4245C213.521 18.4245 211.538 16.6085 211.328 14.4733C211.272 13.934 211.483 13.5377 212.037 13.5047C213.033 13.4497 214.008 13.3616 214.717 14.3962C215.47 15.4968 216.212 15.4198 217.065 14.2972C217.652 13.5157 218.871 13.1855 219.735 13.5487C220.134 13.7138 220.244 14.022 220.244 14.4182C220.244 15.838 219.69 16.9717 218.417 17.6871C217.575 18.1604 216.656 18.4575 215.67 18.4135V18.4245Z" fill="#D5DCBB"/>
<path d="M99.0069 49.8477V59.4342H96.4095V51.1382H91.4002V59.4342H88.8027V49.8477H99.0069Z" fill="#D5DCBB"/>
<path d="M104.21 51.1382V58.1437H106.529C106.949 58.1437 107.333 58.0822 107.679 57.9593C108.038 57.8241 108.341 57.6152 108.588 57.3325C108.848 57.0498 109.046 56.6873 109.182 56.2448C109.33 55.8024 109.405 55.2677 109.405 54.6409C109.405 54.0141 109.33 53.4795 109.182 53.037C109.046 52.5946 108.848 52.232 108.588 51.9493C108.341 51.6667 108.038 51.4639 107.679 51.341C107.333 51.2058 106.949 51.1382 106.529 51.1382H104.21ZM106.529 49.8477C107.382 49.8477 108.155 49.9583 108.848 50.1795C109.553 50.4008 110.153 50.7203 110.648 51.1382C111.142 51.5561 111.52 52.06 111.779 52.6499C112.052 53.2398 112.188 53.9035 112.188 54.6409C112.188 55.3784 112.052 56.042 111.779 56.632C111.52 57.2219 111.142 57.7258 110.648 58.1437C110.153 58.5616 109.553 58.8811 108.848 59.1023C108.155 59.3236 107.382 59.4342 106.529 59.4342H104.21V62.7526H101.612V49.8477H106.529Z" fill="#D5DCBB"/>
<path d="M119.508 58.6046C119.904 58.6046 120.275 58.5308 120.621 58.3833C120.968 58.2359 121.271 58.0085 121.53 57.7012C121.79 57.3817 121.994 56.97 122.143 56.4661C122.303 55.9621 122.384 55.3538 122.384 54.6409C122.384 53.9281 122.303 53.3197 122.143 52.8158C121.994 52.3119 121.79 51.9063 121.53 51.5991C121.271 51.2795 120.968 51.046 120.621 50.8985C120.275 50.751 119.904 50.6773 119.508 50.6773C119.112 50.6773 118.741 50.751 118.395 50.8985C118.049 51.046 117.746 51.2795 117.486 51.5991C117.226 51.9063 117.016 52.3119 116.855 52.8158C116.707 53.3197 116.632 53.9281 116.632 54.6409C116.632 55.3538 116.707 55.9621 116.855 56.4661C117.016 56.97 117.226 57.3817 117.486 57.7012C117.746 58.0085 118.049 58.2359 118.395 58.3833C118.741 58.5308 119.112 58.6046 119.508 58.6046ZM119.508 49.479C120.337 49.479 121.097 49.5957 121.79 49.8293C122.495 50.0505 123.095 50.3823 123.59 50.8248C124.084 51.2549 124.468 51.7957 124.74 52.4471C125.025 53.0862 125.167 53.8175 125.167 54.6409C125.167 55.4767 125.025 56.2141 124.74 56.8532C124.468 57.4923 124.084 58.0331 123.59 58.4755C123.095 58.9057 122.495 59.2314 121.79 59.4526C121.097 59.6861 120.337 59.8029 119.508 59.8029C118.667 59.8029 117.9 59.6861 117.207 59.4526C116.515 59.2314 115.921 58.9057 115.426 58.4755C114.932 58.0331 114.542 57.4923 114.258 56.8532C113.985 56.2141 113.849 55.4767 113.849 54.6409C113.849 53.8175 113.985 53.0862 114.258 52.4471C114.542 51.7957 114.932 51.2549 115.426 50.8248C115.921 50.3823 116.515 50.0505 117.207 49.8293C117.9 49.5957 118.667 49.479 119.508 49.479Z" fill="#D5DCBB"/>
<path d="M132.87 58.5124C133.476 58.5124 134.039 58.4079 134.558 58.199C135.09 57.9901 135.61 57.6951 136.117 57.3141L136.859 58.4202C136.624 58.6292 136.346 58.8197 136.024 58.9917C135.715 59.1638 135.375 59.3113 135.004 59.4342C134.645 59.5448 134.268 59.6308 133.872 59.6923C133.476 59.766 133.08 59.8029 132.684 59.8029C131.806 59.8029 131.002 59.6861 130.272 59.4526C129.555 59.2314 128.943 58.9057 128.436 58.4755C127.929 58.0331 127.533 57.4923 127.248 56.8532C126.976 56.2141 126.84 55.4767 126.84 54.6409C126.84 53.8175 126.97 53.0862 127.23 52.4471C127.502 51.7957 127.873 51.2549 128.343 50.8248C128.825 50.3823 129.394 50.0505 130.05 49.8293C130.705 49.5957 131.429 49.479 132.221 49.479C132.963 49.479 133.661 49.5896 134.317 49.8108C134.973 50.032 135.542 50.3577 136.024 50.7879C136.506 51.2058 136.89 51.7158 137.174 52.3181C137.459 52.9203 137.601 53.6024 137.601 54.3644V55.6549H129.679C129.827 56.675 130.18 57.4063 130.736 57.8487C131.305 58.2912 132.016 58.5124 132.87 58.5124ZM132.221 50.6773C131.862 50.6773 131.528 50.7449 131.219 50.8801C130.909 51.0153 130.637 51.2304 130.402 51.5253C130.18 51.8203 129.994 52.2013 129.846 52.6683C129.71 53.1354 129.635 53.7007 129.623 54.3644H134.818C134.818 53.7253 134.744 53.1722 134.595 52.7052C134.447 52.2382 134.249 51.8572 134.002 51.5622C133.767 51.2549 133.488 51.0337 133.167 50.8985C132.858 50.751 132.542 50.6773 132.221 50.6773Z" fill="#D5DCBB"/>
<path d="M144.279 55.2862H142.331V59.4342H139.733V49.8477H142.331V53.9957H144.279L147.154 49.8477H149.937L146.69 54.5488L150.123 59.4342H147.154L144.279 55.2862Z" fill="#D5DCBB"/>
<path d="M161.076 51.1382H157.18V59.4342H154.583V51.1382H150.687V49.8477H161.076V51.1382Z" fill="#D5DCBB"/>
<path d="M165.994 54.7634C165.994 55.1321 165.865 55.4578 165.605 55.7405C165.357 56.0108 165.023 56.146 164.603 56.146C164.182 56.146 163.842 56.0108 163.582 55.7405C163.335 55.4578 163.211 55.1321 163.211 54.7634C163.211 54.3947 163.335 54.0751 163.582 53.8047C163.842 53.5221 164.182 53.3807 164.603 53.3807C165.011 53.3807 165.345 53.5221 165.605 53.8047C165.865 54.0751 165.994 54.3947 165.994 54.7634Z" fill="#D5DCBB"/>
<path d="M168.227 58.4202H168.784C168.945 58.4202 169.093 58.3895 169.229 58.328C169.365 58.2543 169.483 58.1375 169.582 57.9778C169.693 57.818 169.78 57.6029 169.841 57.3325C169.916 57.0621 169.965 56.718 169.99 56.3001L170.361 49.8477H179.266V59.4342H176.669V51.1382H172.773L172.494 56.3001C172.433 57.5415 172.136 58.4202 171.604 58.9364C171.084 59.4526 170.361 59.7107 169.433 59.7107C169.136 59.7107 168.864 59.68 168.617 59.6185C168.481 59.5939 168.351 59.5632 168.227 59.5263V58.4202Z" fill="#D5DCBB"/>
<path d="M192.248 49.8477V59.4342H189.65V52.2443H189.465L185.198 59.4342H181.858V49.8477H184.455V57.0376H184.641L188.908 49.8477H192.248Z" fill="#D5DCBB"/>
<path d="M200.136 62.7526V59.4342H199.858C199.042 59.4342 198.3 59.3236 197.632 59.1023C196.964 58.8811 196.389 58.5616 195.906 58.1437C195.424 57.7258 195.047 57.2219 194.775 56.632C194.515 56.042 194.385 55.3784 194.385 54.6409C194.385 53.9035 194.515 53.2398 194.775 52.6499C195.047 52.06 195.424 51.5561 195.906 51.1382C196.389 50.7203 196.964 50.4008 197.632 50.1795C198.3 49.9583 199.042 49.8477 199.858 49.8477H200.136V46.5293H202.734V49.8477H203.012C203.828 49.8477 204.571 49.9583 205.238 50.1795C205.906 50.4008 206.482 50.7203 206.964 51.1382C207.446 51.5561 207.817 52.06 208.077 52.6499C208.349 53.2398 208.485 53.9035 208.485 54.6409C208.485 55.3784 208.349 56.042 208.077 56.632C207.817 57.2219 207.446 57.7258 206.964 58.1437C206.482 58.5616 205.906 58.8811 205.238 59.1023C204.571 59.3236 203.828 59.4342 203.012 59.4342H202.734V62.7526H200.136ZM200.136 58.1437V51.1382H199.858C199.487 51.1382 199.135 51.2058 198.801 51.341C198.479 51.4639 198.194 51.6667 197.947 51.9493C197.712 52.232 197.52 52.5946 197.372 53.037C197.236 53.4795 197.168 54.0141 197.168 54.6409C197.168 55.2677 197.236 55.8024 197.372 56.2448C197.52 56.6873 197.712 57.0498 197.947 57.3325C198.194 57.6152 198.479 57.8241 198.801 57.9593C199.135 58.0822 199.487 58.1437 199.858 58.1437H200.136ZM202.734 51.1382V58.1437H203.012C203.383 58.1437 203.729 58.0822 204.051 57.9593C204.385 57.8241 204.67 57.6152 204.905 57.3325C205.152 57.0498 205.344 56.6873 205.48 56.2448C205.628 55.8024 205.702 55.2677 205.702 54.6409C205.702 54.0141 205.628 53.4795 205.48 53.037C205.344 52.5946 205.152 52.232 204.905 51.9493C204.67 51.6667 204.385 51.4639 204.051 51.341C203.729 51.2058 203.383 51.1382 203.012 51.1382H202.734Z" fill="#D5DCBB"/>
<path d="M219.326 51.1382H215.43V59.4342H212.833V51.1382H208.937V49.8477H219.326V51.1382Z" fill="#D5DCBB"/>
<path d="M224.244 54.7634C224.244 55.1321 224.115 55.4578 223.855 55.7405C223.608 56.0108 223.274 56.146 222.853 56.146C222.432 56.146 222.092 56.0108 221.833 55.7405C221.585 55.4578 221.462 55.1321 221.462 54.7634C221.462 54.3947 221.585 54.0751 221.833 53.8047C222.092 53.5221 222.432 53.3807 222.853 53.3807C223.261 53.3807 223.595 53.5221 223.855 53.8047C224.115 54.0751 224.244 54.3947 224.244 54.7634Z" fill="#D5DCBB"/>
<path d="M234.548 57.775L237.609 49.8477H241.413V59.4342H238.815V52.4287H238.63L235.939 59.4342H232.99L230.281 52.4287H230.095V59.4342H227.498V49.8477H231.301L234.362 57.775H234.548Z" fill="#D5DCBB"/>
<path d="M249.198 58.6046C249.594 58.6046 249.965 58.5308 250.312 58.3833C250.658 58.2359 250.961 58.0085 251.221 57.7012C251.48 57.3817 251.684 56.97 251.833 56.4661C251.994 55.9621 252.074 55.3538 252.074 54.6409C252.074 53.9281 251.994 53.3197 251.833 52.8158C251.684 52.3119 251.48 51.9063 251.221 51.5991C250.961 51.2795 250.658 51.046 250.312 50.8985C249.965 50.751 249.594 50.6773 249.198 50.6773C248.803 50.6773 248.432 50.751 248.085 50.8985C247.739 51.046 247.436 51.2795 247.176 51.5991C246.916 51.9063 246.706 52.3119 246.545 52.8158C246.397 53.3197 246.323 53.9281 246.323 54.6409C246.323 55.3538 246.397 55.9621 246.545 56.4661C246.706 56.97 246.916 57.3817 247.176 57.7012C247.436 58.0085 247.739 58.2359 248.085 58.3833C248.432 58.5308 248.803 58.6046 249.198 58.6046ZM249.198 49.479C250.027 49.479 250.788 49.5957 251.48 49.8293C252.185 50.0505 252.785 50.3823 253.28 50.8248C253.775 51.2549 254.158 51.7957 254.43 52.4471C254.715 53.0862 254.857 53.8175 254.857 54.6409C254.857 55.4767 254.715 56.2141 254.43 56.8532C254.158 57.4923 253.775 58.0331 253.28 58.4755C252.785 58.9057 252.185 59.2314 251.48 59.4526C250.788 59.6861 250.027 59.8029 249.198 59.8029C248.357 59.8029 247.59 59.6861 246.898 59.4526C246.205 59.2314 245.611 58.9057 245.117 58.4755C244.622 58.0331 244.232 57.4923 243.948 56.8532C243.676 56.2141 243.54 55.4767 243.54 54.6409C243.54 53.8175 243.676 53.0862 243.948 52.4471C244.232 51.7957 244.622 51.2549 245.117 50.8248C245.611 50.3823 246.205 50.0505 246.898 49.8293C247.59 49.5957 248.357 49.479 249.198 49.479Z" fill="#D5DCBB"/>
<path d="M267.198 49.8477V59.4342H264.601V55.194H259.592V59.4342H256.994V49.8477H259.592V53.9035H264.601V49.8477H267.198Z" fill="#D5DCBB"/>
<path d="M279.08 51.1382H275.184V59.4342H272.587V51.1382H268.691V49.8477H279.08V51.1382Z" fill="#D5DCBB"/>
<path d="M282.138 56.3923C282.138 57.5599 282.849 58.1437 284.272 58.1437H286.869V54.6409H284.272C282.849 54.6409 282.138 55.2247 282.138 56.3923ZM286.869 53.3504C286.869 52.4655 286.634 51.8142 286.164 51.3963C285.706 50.9784 285.107 50.7695 284.364 50.7695C283.808 50.7695 283.264 50.8555 282.732 51.0276C282.2 51.1873 281.724 51.4086 281.303 51.6912L280.654 50.5851C280.926 50.4008 281.223 50.241 281.544 50.1058C281.878 49.9706 282.218 49.86 282.565 49.774C282.911 49.6756 283.251 49.6019 283.585 49.5527C283.932 49.5036 284.253 49.479 284.55 49.479C285.342 49.479 286.04 49.5712 286.646 49.7555C287.253 49.9399 287.766 50.2041 288.186 50.5482C288.607 50.8924 288.922 51.3041 289.133 51.7834C289.355 52.2505 289.467 52.7728 289.467 53.3504V59.4342H284.272C282.589 59.4342 281.346 59.1822 280.542 58.6783C279.751 58.1744 279.355 57.4124 279.355 56.3923C279.355 55.3722 279.751 54.6102 280.542 54.1063C281.346 53.6024 282.589 53.3504 284.272 53.3504H286.869Z" fill="#D5DCBB"/>
<path d="M294.003 59.4342H291.035L294.467 54.5488L291.22 49.8477H294.003L296.879 53.9957H298.456V49.8477H301.053V53.9957H302.63L305.506 49.8477H308.289L305.042 54.5488L308.475 59.4342H305.506L302.63 55.2862H301.053V59.4342H298.456V55.2862H296.879L294.003 59.4342Z" fill="#D5DCBB"/>
</g>
<defs>
<clipPath id="clip0_23_557">
<rect width="309" height="77" fill="white"/>
</clipPath>
</defs>
</svg>
