<svg width="88" height="48" viewBox="0 0 88 48" fill="none" xmlns="http://www.w3.org/2000/svg">
<g clip-path="url(#clip0_40_459)">
<g clip-path="url(#clip1_40_459)">
<g clip-path="url(#clip2_40_459)">
<path fill-rule="evenodd" clip-rule="evenodd" d="M77.6631 3.24949C78.2463 1.41654 77.6631 0.0833841 75.0802 0.0833841H66.4982C64.3318 0.0833841 63.332 1.24976 62.7488 2.49978C62.7488 2.49978 58.3327 13.1647 52.167 20.0801C50.1673 22.0799 49.2508 22.7464 48.1678 22.7464C47.5843 22.7464 46.8347 22.0799 46.8347 20.2469V3.16611C46.8347 0.99986 46.168 0 44.3348 0H30.8371C29.5039 0 28.6709 0.99986 28.6709 1.99973C28.6709 4.08284 31.7536 4.58264 32.0869 10.415V23.0797C32.0869 25.8294 31.587 26.3292 30.5038 26.3292C27.5876 26.3292 20.5054 15.5808 16.2561 3.33288C15.4227 0.916478 14.5896 0 12.4234 0H3.75786C1.2583 0 0.841675 1.16663 0.841675 2.4164C0.841675 4.66603 3.75786 15.9976 14.4229 30.9952C21.5053 41.2435 31.587 46.7426 40.6689 46.7426C46.168 46.7426 46.8347 45.4929 46.8347 43.41V35.6613C46.8347 33.1616 47.3344 32.7451 49.0843 32.7451C50.334 32.7451 52.5837 33.4114 57.6661 38.3274C63.4986 44.1598 64.4984 46.8261 67.7479 46.8261H76.33C78.8295 46.8261 79.9961 45.5763 79.3296 43.1599C78.5796 40.7438 75.7468 37.2444 72.0806 33.0781C70.0809 30.7453 67.0814 28.1624 66.1648 26.9124C64.915 25.2462 65.2483 24.5796 66.1648 23.0797C66.0817 23.0797 76.5799 8.24881 77.6631 3.24949Z" fill="#3375F6"/>
</g>
</g>
</g>
<defs>
<clipPath id="clip0_40_459">
<rect width="87" height="47.39" fill="white" transform="translate(0.833374)"/>
</clipPath>
<clipPath id="clip1_40_459">
<rect width="79" height="47.39" fill="white" transform="translate(0.833374)"/>
</clipPath>
<clipPath id="clip2_40_459">
<rect width="78.9833" height="47.39" fill="white" transform="translate(0.841675)"/>
</clipPath>
</defs>
</svg>
